<svg width="275" height="154" viewBox="0 0 275 154" fill="none" xmlns="http://www.w3.org/2000/svg">
<path fill-rule="evenodd" clip-rule="evenodd" d="M39.4445 133.505C47.3317 135.891 56.9683 133.379 65.0627 135.473C73.8205 137.738 79.9244 142.355 87.4942 145.934C99.9456 151.821 118.153 154.33 124.102 163.385C130.007 172.374 127.832 184.478 117.606 191.772C107.178 199.21 87.4138 195.95 72.9385 199.879C60.6567 203.212 52.7991 213.459 39.4445 212.984C25.9661 212.504 18.8735 202.662 8.06974 197.57C-1.28603 193.16 -12.4265 190.578 -19.9899 184.971C-28.496 178.664 -35.292 171.473 -38.0374 163.385C-41.152 154.209 -42.3609 144.411 -36.7039 135.729C-30.751 126.593 -21.5475 114.472 -5.86811 114.014C12.7267 113.471 22.6687 128.43 39.4445 133.505Z" fill="#7664D5"/>
<path fill-rule="evenodd" clip-rule="evenodd" d="M186.444 -20.0674C194.332 -16.2835 203.968 -20.2678 212.063 -16.9475C220.82 -13.3549 226.924 -6.03248 234.494 -0.356991C246.946 8.97856 265.153 12.9571 271.102 27.3178C277.007 41.5722 274.832 60.7682 264.606 72.3357C254.178 84.1309 234.414 78.9619 219.939 85.1917C207.657 90.4776 199.799 106.729 186.444 105.975C172.966 105.214 165.873 89.6052 155.07 81.5298C145.714 74.5367 134.573 70.4426 127.01 61.5498C118.504 51.5485 111.708 40.1448 108.963 27.3178C105.848 12.7661 104.639 -2.77269 110.296 -16.5408C116.249 -31.0294 125.453 -50.251 141.132 -50.9772C159.727 -51.8383 169.669 -28.1157 186.444 -20.0674Z" fill="#5643B4"/>
</svg>
