<svg width="359" height="120" viewBox="0 0 359 120" fill="none" xmlns="http://www.w3.org/2000/svg">
<path fill-rule="evenodd" clip-rule="evenodd" d="M77.5743 79.1891C88.5601 82.5152 101.983 79.013 113.257 81.9315C125.455 85.0893 133.957 91.5256 144.501 96.5142C161.844 104.72 187.205 108.217 195.49 120.84C203.714 133.369 200.685 150.242 186.442 160.41C171.917 170.777 144.389 166.234 124.227 171.71C107.12 176.356 96.1754 190.64 77.5743 189.978C58.8009 189.309 48.9218 175.589 33.8738 168.491C20.8425 162.344 5.32542 158.746 -5.20927 150.929C-17.057 142.138 -26.5229 132.115 -30.3469 120.84C-34.685 108.049 -36.3689 94.3909 -28.4896 82.289C-20.1979 69.5538 -7.37875 52.6584 14.4603 52.0201C40.3603 51.2631 54.2081 72.1148 77.5743 79.1891Z" fill="#7664D5"/>
<path fill-rule="evenodd" clip-rule="evenodd" d="M323.495 -39.5175C335.654 -33.709 350.511 -39.8252 362.989 -34.7283C376.491 -29.2137 385.901 -17.9734 397.571 -9.26138C416.767 5.069 444.838 11.1762 454.008 33.2204C463.111 55.1012 459.759 84.5677 443.993 102.324C427.917 120.43 397.447 112.496 375.131 122.059C356.197 130.173 344.083 155.118 323.495 153.961C302.716 152.793 291.781 128.833 275.125 116.437C260.702 105.703 243.527 99.4183 231.867 85.7675C218.753 70.4152 208.276 52.9101 204.043 33.2204C199.242 10.883 197.378 -12.9695 206.099 -34.104C215.277 -56.3445 229.465 -85.8503 253.638 -86.9649C282.305 -88.2869 297.632 -51.8719 323.495 -39.5175Z" fill="#5643B4"/>
</svg>
