<svg width="32" height="32" viewBox="0 0 32 32" fill="none" xmlns="http://www.w3.org/2000/svg">
<path d="M29.3334 10.4131V21.5864C29.3334 25.8664 25.8667 29.3331 21.5867 29.3331H10.4134C6.13335 29.3331 2.66669 25.8664 2.66669 21.5864V10.4131C2.66669 7.09311 4.02669 4.67977 6.44002 3.50644C7.32002 3.07977 8.33335 3.74644 8.33335 4.71977V16.5598C8.33335 18.1464 8.94669 19.4131 10.0534 20.0531C11.1734 20.6798 12.5867 20.5464 14.0267 19.6798L15.76 18.6398C15.8667 18.5864 16.1334 18.5864 16.2134 18.6264L17.9734 19.6798C18.9334 20.2531 19.76 20.4398 20.4267 20.4398C21.12 20.4398 21.6534 20.2264 21.9734 20.0398C23.0534 19.4131 23.6667 18.1464 23.6667 16.5598V4.71977C23.6667 3.74644 24.6934 3.07977 25.56 3.50644C27.9734 4.67977 29.3334 7.09311 29.3334 10.4131Z" fill="#7664D5"/>
<path d="M20.3333 2.6665C21.0666 2.6665 21.6666 3.2665 21.6666 3.99984V16.5598C21.6666 17.4132 21.4133 18.0532 20.9733 18.3065C20.52 18.5732 19.8 18.4398 19 17.9598L17.24 16.9065C16.56 16.4932 15.44 16.4932 14.76 16.9065L13 17.9598C12.2 18.4398 11.48 18.5598 11.0266 18.3065C10.5866 18.0532 10.3333 17.4132 10.3333 16.5598V3.99984C10.3333 3.2665 10.9333 2.6665 11.6666 2.6665H20.3333Z" fill="#7664D5"/>
</svg>
