<svg width="32" height="32" viewBox="0 0 32 32" fill="none" xmlns="http://www.w3.org/2000/svg">
<path d="M26.8 12.2936C24.3867 12.2936 23.4 10.5869 24.6 8.49357C25.2934 7.28024 24.88 5.73357 23.6667 5.04024L21.36 3.72024C20.3067 3.09357 18.9467 3.46691 18.32 4.52024L18.1734 4.77357C16.9734 6.86691 15 6.86691 13.7867 4.77357L13.64 4.52024C13.04 3.46691 11.68 3.09357 10.6267 3.72024L8.32002 5.04024C7.10669 5.73357 6.69335 7.29357 7.38669 8.50691C8.60002 10.5869 7.61335 12.2936 5.20002 12.2936C3.81335 12.2936 2.66669 13.4269 2.66669 14.8269V17.1736C2.66669 18.5602 3.80002 19.7069 5.20002 19.7069C7.61335 19.7069 8.60002 21.4136 7.38669 23.5069C6.69335 24.7202 7.10669 26.2669 8.32002 26.9602L10.6267 28.2802C11.68 28.9069 13.04 28.5336 13.6667 27.4802L13.8134 27.2269C15.0134 25.1336 16.9867 25.1336 18.2 27.2269L18.3467 27.4802C18.9734 28.5336 20.3334 28.9069 21.3867 28.2802L23.6934 26.9602C24.9067 26.2669 25.32 24.7069 24.6267 23.5069C23.4134 21.4136 24.4 19.7069 26.8134 19.7069C28.2 19.7069 29.3467 18.5736 29.3467 17.1736V14.8269C29.3334 13.4402 28.2 12.2936 26.8 12.2936ZM16 20.3336C13.6134 20.3336 11.6667 18.3869 11.6667 16.0002C11.6667 13.6136 13.6134 11.6669 16 11.6669C18.3867 11.6669 20.3334 13.6136 20.3334 16.0002C20.3334 18.3869 18.3867 20.3336 16 20.3336Z" fill="#7664D5"/>
</svg>
