<svg width="50" height="32" viewBox="0 0 50 32" fill="none" xmlns="http://www.w3.org/2000/svg">
<path d="M32.2135 29.7995C31.5068 29.7995 30.6001 29.5728 29.4668 28.9061L25.4801 26.5461C25.0668 26.3061 24.2668 26.3061 23.8668 26.5461L19.8668 28.9061C17.5068 30.3061 16.1201 29.7461 15.4935 29.2928C14.8801 28.8395 13.9201 27.6795 14.5468 25.0128L15.4935 20.9195C15.6001 20.4928 15.3868 19.7595 15.0668 19.4395L11.7601 16.1328C10.1068 14.4795 10.2401 13.0661 10.4668 12.3728C10.6935 11.6795 11.4135 10.4528 13.7068 10.0661L17.9601 9.35947C18.3601 9.2928 18.9335 8.86613 19.1068 8.50613L21.4668 3.79947C22.5335 1.6528 23.9335 1.3328 24.6668 1.3328C25.4001 1.3328 26.8001 1.6528 27.8668 3.79947L30.2135 8.4928C30.4001 8.8528 30.9735 9.27947 31.3735 9.34613L35.6268 10.0528C37.9335 10.4395 38.6535 11.6661 38.8668 12.3595C39.0801 13.0528 39.2135 14.4661 37.5735 16.1195L34.2668 19.4395C33.9468 19.7595 33.7468 20.4795 33.8401 20.9195L34.7868 25.0128C35.4001 27.6795 34.4535 28.8395 33.8401 29.2928C33.5068 29.5328 32.9735 29.7995 32.2135 29.7995Z" fill="#7664D5"/>
</svg>
