<svg width="32" height="32" viewBox="0 0 32 32" fill="none" xmlns="http://www.w3.org/2000/svg">
<path d="M28.7066 21.24C28.4933 20.88 27.8933 20.32 26.4 20.5867C25.5733 20.7333 24.7333 20.8 23.8933 20.76C20.7866 20.6267 17.9733 19.2 16.0133 17C14.28 15.0667 13.2133 12.5467 13.2 9.82666C13.2 8.30666 13.4933 6.83999 14.0933 5.45333C14.68 4.10666 14.2666 3.39999 13.9733 3.10666C13.6666 2.79999 12.9466 2.37333 11.5333 2.95999C6.07998 5.25333 2.70664 10.72 3.10664 16.5733C3.50664 22.08 7.37331 26.7867 12.4933 28.56C13.72 28.9867 15.0133 29.24 16.3466 29.2933C16.56 29.3067 16.7733 29.32 16.9866 29.32C21.4533 29.32 25.64 27.2133 28.28 23.6267C29.1733 22.3867 28.9333 21.6 28.7066 21.24Z" fill="#7664D5"/>
</svg>
