<svg width="32" height="32" viewBox="0 0 32 32" fill="none" xmlns="http://www.w3.org/2000/svg">
<path d="M28.6666 14.5332V5.4665C28.6666 3.4665 27.8133 2.6665 25.6933 2.6665H20.3066C18.1866 2.6665 17.3333 3.4665 17.3333 5.4665V14.5332C17.3333 16.5332 18.1866 17.3332 20.3066 17.3332H25.6933C27.8133 17.3332 28.6666 16.5332 28.6666 14.5332Z" fill="#7664D5"/>
<path d="M14.6666 17.4665V26.5332C14.6666 28.5332 13.8133 29.3332 11.6933 29.3332H6.30665C4.18665 29.3332 3.33331 28.5332 3.33331 26.5332V17.4665C3.33331 15.4665 4.18665 14.6665 6.30665 14.6665H11.6933C13.8133 14.6665 14.6666 15.4665 14.6666 17.4665Z" fill="#7664D5"/>
<path d="M28.6666 26.5332V22.7998C28.6666 20.7998 27.8133 19.9998 25.6933 19.9998H20.3066C18.1866 19.9998 17.3333 20.7998 17.3333 22.7998V26.5332C17.3333 28.5332 18.1866 29.3332 20.3066 29.3332H25.6933C27.8133 29.3332 28.6666 28.5332 28.6666 26.5332Z" fill="#7664D5"/>
<path d="M14.6666 9.19984V5.4665C14.6666 3.4665 13.8133 2.6665 11.6933 2.6665H6.30665C4.18665 2.6665 3.33331 3.4665 3.33331 5.4665V9.19984C3.33331 11.1998 4.18665 11.9998 6.30665 11.9998H11.6933C13.8133 11.9998 14.6666 11.1998 14.6666 9.19984Z" fill="#7664D5"/>
</svg>
