<svg width="355" height="287" viewBox="0 0 355 287" fill="none" xmlns="http://www.w3.org/2000/svg">
<path d="M215.883 21.1769C208.68 25.3821 203.955 31.7297 200.39 39.0767C196.392 41.475 195.145 45.4243 194.418 49.6774C194.202 50.9566 193.65 52.1637 192.891 53.163C187.926 59.6466 184.976 67.0256 183.873 75.0041C183.385 78.5537 182.106 81.6076 180.827 84.8294C179.644 87.8033 178.653 90.9772 179.436 94.3349C179.724 95.582 179.58 96.8771 179.476 98.1562C179.348 99.7072 179.164 101.25 177.365 101.778C175.623 102.289 174.136 101.698 172.968 100.387C171.354 98.58 169.827 96.7012 168.372 94.2869C167.252 97.7565 165.326 97.5487 162.847 96.2536C159.769 94.6387 157.915 92.672 157.579 88.8186C157.163 84.0139 155.069 79.4251 155.476 74.4205C156.372 63.524 159.13 53.7067 167.764 45.88C171.258 42.7062 174.336 38.629 177.11 34.5038C179.388 31.1141 182.226 27.8923 186.335 26.3174C190.109 24.8704 193.466 22.536 197.32 21.2569C199.143 20.6733 200.973 20.1137 202.196 18.4748C205.082 16.1244 208.648 14.8772 211.606 12.6388C213.597 12.1031 215.595 11.5595 217.586 11.0239C219.321 10.5202 220.848 10.7121 221.695 12.5189C222.471 14.1657 221.983 15.6847 220.928 17.0438C220.224 17.9472 219.049 18.4188 218.593 19.5541C217.514 19.7939 216.467 20.0977 215.891 21.1849L215.883 21.1769Z" fill="#ECECEC"/>
<path d="M245.111 177.43C249.636 178.613 254.289 179.34 258.55 181.419C260.189 182.258 262.651 182.562 262.579 184.865C262.515 187.031 260.852 188.518 258.829 189.517C255.448 191.18 252.402 193.811 248.205 192.867C246.662 193.315 245.159 194.106 243.488 193.403C241.074 192.38 238.995 193.723 236.821 194.37C236.157 194.49 235.541 194.298 234.942 194.066C234.414 193.906 233.934 193.547 233.183 193.675C233.974 195.026 235.342 194.402 236.365 194.746C238.427 194.698 240.578 193.875 242.409 195.529C238.651 196.761 234.774 196.385 231.025 195.905C222.286 194.794 213.604 193.291 204.898 191.948C204.786 191.932 204.659 191.932 204.555 191.892C193.602 187.263 181.738 184.889 171.521 178.453C167.332 175.823 164.222 172.065 161.072 168.356C159.689 165.166 159.018 161.617 156.667 158.922C155.396 157.459 152.878 157.779 151.855 155.493C151.383 154.437 151.463 152.903 150.144 152.239C149.64 151.951 148.929 151.575 149.033 151.04C149.632 147.93 148.169 145.428 146.818 142.877C146.938 141.822 147.178 140.775 146.89 139.704C146.85 139.392 146.85 139.072 146.874 138.76C147.098 136.993 148.537 136.394 149.584 137.297C152.35 139.696 156.675 140.439 157.763 144.676C158.138 145.715 158.898 146.531 159.465 147.45C161.952 153.782 165.461 159.138 172.489 161.153C172.976 161.233 173.44 161.385 173.872 161.633C176.422 164.495 177.341 168.508 180.451 170.946C182.218 169.547 183.633 169.603 185.64 171.034C189.333 173.656 193.322 175.967 197.951 176.718C204.419 179.94 211.438 181.083 218.489 182.059C219.288 182.171 220.08 182.274 220.783 182.706C221.911 183.082 222.854 185.089 224.245 183.082C224.405 182.81 224.605 182.562 224.821 182.33C227.107 181.531 229.306 180.58 230.473 178.261C231.64 175.935 233.743 176.39 235.709 176.398C235.989 176.239 236.277 176.127 236.581 176.031C238.971 175.767 240.842 177.622 243.184 177.614C243.84 177.614 244.495 177.965 245.087 177.414L245.111 177.43Z" fill="#BABABA"/>
<path d="M197.608 21.6246C194.905 23.951 191.46 24.9983 188.326 26.3574C183.377 28.5159 179.916 31.6657 177.397 36.3185C176.758 37.4937 176.254 39.5243 174.096 39.4604C173.824 39.4524 173.408 39.7802 173.28 40.052C169.994 47.1032 162.272 50.7647 159.706 58.5194C156.692 67.6331 155.021 76.6429 157.955 86.0445C158.402 87.4835 158.762 88.8266 158.602 90.4255C158.37 92.712 163.991 97.2209 166.029 96.5413C166.901 96.2535 167.66 95.534 167.26 94.3828C167.013 93.6633 166.861 92.8878 167.732 92.656C168.715 92.3922 169.283 93.3115 169.451 94.0231C169.994 96.3335 172.129 97.4767 173.192 99.4034C173.952 100.778 175.319 101.474 177.054 101.186C179.252 100.818 178.429 99.0116 178.573 97.8444C178.996 94.2629 177.629 90.6254 179.132 87.0039C179.724 85.5648 180.076 84.0299 180.819 82.5909C183.537 77.3784 183.257 71.3826 184.984 65.8983C185.288 64.939 185.104 63.8277 185.88 62.9883C188.614 60.0383 189.205 55.8092 192.051 52.8752C194.658 50.189 194.362 46.1598 195.441 42.8741C196.52 39.6123 198.567 40.044 200.39 39.0846C197.672 45.1605 194.953 51.2443 192.235 57.3202C190.293 60.43 188.686 63.6039 188.814 67.4732C188.973 72.142 187.95 76.587 185.496 80.6402C182.754 85.5169 183.897 90.5694 185.088 95.502C185.768 98.3241 186.223 101.178 186.847 104C187.023 104.792 187.287 105.767 186.799 106.383C184.481 109.293 184.88 112.498 185.096 115.912C185.304 119.054 184.425 122.196 180.675 123.291C179.62 123.595 178.98 124.474 178.205 125.17C175.815 125.625 173.376 127.552 171.018 125.298C167.42 121.852 162.48 119.094 163.991 112.762C164.822 109.285 164.534 105.887 163.519 102.465C162.504 99.0436 161.288 97.8764 157.467 97.3168C154.013 97.7485 152.407 95.8858 151.735 92.7839C150.888 88.8266 150.584 84.8134 150.88 80.8081C151.016 78.9614 150.983 77.1546 150.888 75.3319C151.807 69.6637 153.894 64.2594 154.621 58.5353C154.765 57.3921 155.388 56.3368 156.14 55.4575C157.747 53.5707 158.235 51.4122 157.963 49.0219C158.107 48.1345 158.762 47.5029 159.146 46.7434V46.7594C160.337 45.9599 161.72 45.7601 163.103 45.6242C164.75 45.4643 166.253 45.3204 165.238 42.994C164.998 42.4424 165.326 41.8508 165.829 41.483C169.307 38.9407 171.122 34.9675 174.16 31.9695C179.644 26.5492 186.255 23.4953 193.331 21.1209C194.706 20.6573 196.305 20.3934 197.592 21.6486L197.608 21.6246Z" fill="#E9E9E9"/>
<path d="M173.848 161.992C173.384 161.984 172.921 161.976 172.457 161.968C168.188 159.57 165.286 155.965 163.239 151.6C162.128 148.905 160.849 146.259 161.049 143.229C162.408 141.63 163.799 141.622 165.062 143.293C166.493 145.188 168.02 145.979 170.658 145.668C172.937 145.396 175.279 146.851 177.654 147.346C178.989 147.626 180.388 149.377 181.411 148.49C182.626 147.442 184.113 146.123 184.593 144.58C185.28 142.342 186.887 141.231 188.518 139.944C190.445 138.433 192.196 138.089 194.506 139.472C196.656 140.751 199.167 141.574 201.789 140.439C203.564 142.638 204.203 145.372 205.339 147.874C206.122 149.913 204.835 151.232 203.548 152.343C201.613 154.014 199.958 152.959 198.615 149.001C198.351 153.774 196.704 157.947 197.256 162.472C197.672 165.846 194.642 168.108 191.26 167.245C189.925 166.901 188.694 166.198 187.279 166.11C184.961 165.454 183.37 163.743 181.611 162.24C177.869 159.026 177.558 159.042 173.84 162L173.848 161.992Z" fill="#D6D6D6"/>
<path d="M189.333 101.602C191.412 109.117 193.482 116.624 195.561 124.139C196.344 129.271 195.441 133.844 191.691 137.769C189.829 139.72 188.422 139.176 187.094 137.521C185.56 135.619 183.897 133.868 182.226 132.093C180.571 130.342 179.14 130.198 177.557 131.981C177.013 132.589 176.558 133.34 175.758 133.58C174.199 134.052 174.439 134.995 175.087 135.97C175.99 137.338 176.813 138.737 177.117 140.367C177.381 141.758 177.013 142.934 175.75 143.661C174.495 144.389 173.504 143.757 172.696 142.822C171.705 141.687 170.618 141.559 169.075 141.487C166.644 141.375 164.718 139.368 163.287 137.553C162.016 135.938 160.721 134.308 159.489 132.645C158.338 131.094 157.027 129.479 157.451 127.272C157.563 126.689 157.523 126.041 157.155 125.594C153.485 121.077 155.348 115.888 155.38 110.932C155.38 110.26 155.868 109.493 155.532 108.893C153.565 105.295 155.82 101.754 155.572 98.1883C158.066 97.0131 159.713 97.4368 160.409 99.7712C161.088 102.074 161.768 104.488 160.8 106.926C160.009 108.917 160.113 111.028 159.961 113.098C159.921 113.682 159.785 114.505 160.161 114.777C164.126 117.615 164.43 123.515 169.259 125.578C170.01 126.081 170.61 126.809 171.505 127.097C171.777 127.184 172.049 127.288 172.321 127.384C173.464 127.712 174.567 127.768 175.51 126.865C176.11 126.337 176.726 125.841 177.541 125.705C179.692 125.258 181.738 124.466 183.121 127.376C183.881 128.975 185.719 128.847 186.879 127.416C188.062 125.961 188.869 124.266 188.35 122.26C187.766 120.013 187.614 117.687 186.911 115.464C186.175 113.146 186.111 110.716 187.59 108.781C189.293 106.551 187.462 103.649 189.333 101.586V101.602Z" fill="#DEDEDE"/>
<path d="M155.684 98.4361C155.852 100.842 157.155 103.345 155.061 105.567C154.941 105.695 154.917 106.087 155.021 106.231C158.418 110.908 154.629 116.096 156.028 120.989C156.348 122.1 155.988 123.027 157.219 124.011C158.011 124.642 159.578 126.113 158.187 127.84C157.635 128.52 158.211 129.111 158.618 129.687C161.408 133.716 164.078 137.825 168.132 140.783C168.635 141.151 168.675 140.951 169.123 140.783C170.666 140.184 172.289 139.92 173.112 141.934C173.568 143.046 174.216 143.829 175.431 143.158C176.406 142.614 176.854 141.671 176.358 140.479C175.791 139.104 175.319 137.761 174.343 136.514C173.56 135.515 171.553 133.244 175.303 133.092C175.495 133.092 175.767 132.901 175.854 132.725C176.886 130.63 178.796 128.855 180.811 129.759C182.898 130.686 184.353 133.028 186.071 134.763C186.223 134.923 186.263 135.187 186.399 135.371C187.343 136.65 188.326 138.817 189.797 138.337C191.372 137.817 193.434 135.922 193.57 134.475C193.89 130.926 196.137 127.8 195.561 124.139C197.879 129.479 198.951 135.299 201.797 140.439C201.685 141.175 201.981 142.358 200.701 142.118C198.455 141.695 196.105 141.367 194.058 140.423C190.988 139 186.399 140.999 185.752 144.509C185.32 146.843 182.178 147.387 182.29 150.137C182.314 150.664 181.091 150.049 180.603 149.649C177.933 147.411 174.112 148.274 171.369 146.211C171.17 146.06 170.634 146.124 170.402 146.291C167.372 148.482 165.845 145.948 164.71 144.077C163.639 142.302 162.56 142.87 161.272 143.118C161.121 143.046 160.969 142.966 160.817 142.902C158.099 140.759 156.7 137.777 155.708 134.603C155.285 133.244 154.557 132.149 153.718 131.062C151.751 125.785 153.102 120.245 152.478 114.857C151.911 109.948 152.271 104.992 151.999 100.067C151.887 99.7233 151.839 99.3715 151.839 99.0197C151.879 98.652 152.039 98.3562 152.327 98.1164C153.318 97.5887 154.317 97.5727 155.332 98.0524C155.452 98.1723 155.572 98.3002 155.692 98.4202L155.684 98.4361Z" fill="#DBDBDB"/>
<path d="M187.127 165.462C187.998 165.51 188.87 164.751 189.757 165.598C192.124 167.869 194.97 166.565 196.217 164.967C197.256 163.631 197.16 160.562 195.921 158.699C194.882 157.148 195.465 156.972 196.497 155.901C198.151 154.174 197.16 151.552 197.592 149.345C197.768 148.442 197.592 147.275 198.991 147.49C200.07 147.658 200.606 148.562 200.206 149.585C199.654 151 200.062 151.816 201.397 152.303C202.988 152.887 203.372 151.56 203.971 150.624C204.531 149.761 205.363 149.025 205.339 147.866C206.969 150.009 208.6 152.143 210.231 154.286C209.664 155.421 208.96 156.476 208.336 157.58C206.977 159.97 206.881 162.152 208.704 164.655C210.247 166.757 211.262 169.204 213.533 170.771C215.3 171.994 216.819 172.505 218.234 170.339C219.049 169.092 220.424 168.628 221.767 168.268C225.461 167.269 227.611 169.244 227.523 173.465C226.812 174.04 226.108 174.6 225.541 175.367C222.671 179.301 219.561 179.804 215.444 177.174C214.164 176.359 212.725 174.336 211.75 177.614C211.374 178.885 209.799 178.693 209.056 178.126C204.579 174.752 199.167 174.64 194.018 173.577C191.924 172.154 189.613 171.034 187.918 169.068C186.999 168.004 185.96 166.981 187.119 165.462H187.127Z" fill="#D1D1D1"/>
<path d="M227.651 173.145C225.972 172.537 227.683 170.355 225.78 169.547C223.078 168.404 220.216 168.772 218.617 171.33C217.402 173.273 215.819 173.632 214.3 172.321C212.158 170.467 208.776 169.467 208.976 165.654C209.024 164.703 207.793 165.118 207.249 164.335C205.258 161.457 206.49 156.628 210.231 154.286C219.457 160.833 227.587 168.852 237.42 174.584C238.668 176.431 236.101 175.687 236.029 176.63C234.606 177.614 233.847 175.855 232.672 175.823C230.857 175.191 228.435 175.687 227.643 173.137L227.651 173.145Z" fill="#D5D5D5"/>
<path d="M189.333 101.602C189.597 104.895 189.605 108.133 187.526 111.003C186.951 111.795 187.071 112.77 187.43 113.681C188.574 116.591 188.853 119.733 189.565 122.739C190.125 125.073 188.566 127.584 186.535 129.343C185.008 130.654 182.961 128.943 182.905 128.679C182.138 125.009 179.508 126.321 177.349 126.377C176.934 125.585 177.645 125.361 178.045 124.978C177.933 123.802 178.381 123.027 179.5 122.507C184.233 120.309 185.504 117.551 183.673 112.642C182.826 110.371 184.145 108.717 185.144 107.445C186.207 106.094 186.151 105.199 185.831 103.784C184.808 99.2031 183.881 94.5903 183.041 89.9695C182.418 86.5158 182.921 83.2221 185.024 80.2881C186.135 84.0695 185.783 88.0588 186.711 91.8881C187.246 94.0946 188.174 96.1892 188.502 98.4437C188.678 99.5309 188.246 100.77 189.333 101.617V101.602Z" fill="#E4E4E4"/>
<path d="M143.125 134.739C142.102 130.582 141.07 126.425 140.047 122.268C140.183 121.788 141.022 121.916 140.967 121.428C140.143 113.818 143.005 107.214 146.619 100.827C146.842 100.435 147.37 100.315 147.826 100.211C152.399 100.011 152.103 100.043 152.335 104.736C152.702 112.483 152.063 120.253 152.966 127.968C153.454 132.165 155.437 135.907 157.475 139.568C157.851 139.96 158.091 140.423 158.131 140.967C158.099 141.327 157.939 141.631 157.675 141.87C156.156 142.51 155.66 141.151 154.893 140.407C152.639 138.209 150.848 135.675 149.489 132.829C148.825 129.079 148.673 125.338 148.961 121.5C149.321 116.64 148.361 111.755 148.681 106.822C146.843 110.068 145.26 113.322 145.427 117.103C145.507 117.407 145.523 117.711 145.467 118.023C144.948 119.038 145.228 120.093 145.339 121.141C146.339 124.938 144.86 128.823 145.867 132.661C146.427 134.787 144.9 135.139 143.141 134.731L143.125 134.739Z" fill="#CECECE"/>
<path d="M138.84 97.4125C138.696 87.6671 141.39 78.5694 145.163 69.7114C146.259 70.6788 146.291 72.0218 146.099 73.253C145.123 79.4008 147.562 85.4367 146.674 91.5685C146.419 93.3592 149.257 94.1747 148.145 96.2293C145.131 100.554 143.532 105.471 141.99 110.452C141.59 111.739 141.39 113.961 138.888 113.098C138.696 112.938 138.688 112.762 138.848 112.578C138.36 107.526 138.432 102.465 138.832 97.4125H138.84Z" fill="#D9D9D9"/>
<path d="M147.298 96.3332C147.45 95.8935 147.594 95.4618 147.746 95.0221C143.868 93.8229 145.803 90.873 145.955 88.6025C146.123 86.1162 145.435 83.7658 145.116 81.3834C144.572 77.4501 145.427 73.5888 145.171 69.7034C146.515 65.2905 148.217 61.0294 150.76 57.144C152.303 57.8556 152.007 59.1587 151.831 60.4298C150.352 70.9586 150.6 81.5673 150.368 92.1601C150.32 94.4785 151.599 96.3412 152.199 98.4278C152.199 98.6596 152.199 98.8915 152.199 99.1233C151.951 99.8188 151.471 100.131 150.728 100.011C148.977 99.611 148.401 97.9961 147.418 96.7969C147.378 96.645 147.346 96.4931 147.306 96.3332H147.298Z" fill="#DFDFDF"/>
<path d="M152.183 98.428C150.32 97.2448 149.353 95.486 149.424 93.3435C149.568 89.2023 149.185 85.0691 149.584 80.904C150.08 75.7155 150.16 70.4551 150.008 65.2427C149.928 62.4686 152.103 59.9743 150.752 57.1522C152.87 53.131 155.948 49.8772 159.154 46.7354C158.93 47.4469 158.706 48.1584 158.474 48.8699C157.723 54.2822 154.029 58.6792 153.414 64.2274C153.03 67.721 152.286 71.2386 151.487 74.7082C152.958 77.7701 151.591 80.9679 151.871 84.1098C152.119 86.9079 152.207 89.7139 152.654 92.504C153.134 95.534 154.661 96.941 157.779 96.3574C157.739 98.0922 156.164 97.1728 155.436 97.7085C154.333 97.8604 153.094 97.4367 152.183 98.444V98.428Z" fill="#E8E8E8"/>
<path d="M197.607 21.6243C194.298 21.9361 190.772 21.3525 188.166 24.3425C187.542 25.062 186.383 25.6296 185.432 25.7015C180.339 26.0613 178.077 30.4343 174.567 33.0485C171.257 35.5188 170.066 39.8439 166.437 41.9544C165.389 42.57 165.997 42.9297 166.509 43.4574C168.276 45.3121 166.9 46.2075 165.286 46.4713C163.279 46.7991 161.192 46.6712 159.146 46.7351C163.263 42.1942 167.476 37.7413 171.465 33.0965C177.333 26.2611 184.992 22.4158 193.25 19.4498C195.129 18.8902 197.08 18.6583 198.966 18.1787C200.262 17.8509 201.477 17.8109 202.5 18.8422C201.645 21.1287 199.814 21.7123 197.607 21.6243Z" fill="#E8E8E8"/>
<path d="M143.125 134.739C143.525 133.835 145.907 134.827 145.091 132.884C143.421 128.895 145.539 124.77 144.508 120.78C145.323 119.989 144.188 118.726 145.203 117.982C145.203 117.75 145.203 117.519 145.203 117.287C145.747 115.792 144.9 113.13 147.21 113.122C150.032 113.106 148.745 115.872 149.137 117.455C149.648 119.509 149.329 121.572 148.993 123.61C148.481 126.736 148.609 129.766 150.088 132.644C152.47 135.818 154.021 139.703 157.771 141.726C157.899 141.854 158.019 141.982 158.147 142.11C158.65 143.165 158.642 144.196 158.003 145.196C157.699 145.491 157.387 145.491 157.075 145.22C156.196 140.855 151.655 140.383 149.081 137.809C148.017 136.745 147.81 138.408 147.282 138.936C145.427 139.456 145.067 137.345 143.748 136.929C143.173 136.306 142.989 135.57 143.117 134.739H143.125Z" fill="#C1C1C1"/>
<path d="M247.925 192.004C252.042 193.267 254.808 190.301 258.15 188.966C260.301 188.103 261.508 186.576 261.828 184.873C261.988 184.034 260.477 181.819 258.158 182.331C257.774 182.419 258.294 181.699 258.542 181.411C260.884 180.916 263.043 182.019 265.313 182.235C267.816 182.475 268.719 185.888 266.856 187.951C265.953 188.95 264.73 189.83 263.483 190.309C259.309 191.932 255.064 193.347 250.843 194.842C249.564 195.354 248.229 195.034 246.918 195.09C245.447 193.475 247.901 193.123 247.925 191.996V192.004Z" fill="#D5D5D5"/>
<path d="M188.502 98.4279C185.472 93.839 185.264 88.4747 184.433 83.3022C184.281 82.3509 184.809 81.2876 185.024 80.2723C185.784 77.0265 188.262 74.3803 188.15 70.7748C188.118 69.6716 188.342 68.5843 188.11 67.4091C187.279 63.196 189.206 60.0062 192.235 57.312C188.206 70.7668 187.183 84.4934 188.502 98.4279Z" fill="#DEDEDE"/>
<path d="M138.896 113.098C141.582 112.322 141.678 109.58 142.038 107.781C142.893 103.456 144.724 99.779 147.306 96.3413C148.097 97.4765 148.345 98.7397 148.233 100.091C148.161 100.235 148.081 100.387 148.002 100.53C145.851 102.025 144.836 104.488 144.412 106.694C143.453 111.707 140.623 116.328 141.166 121.668C141.182 121.828 140.439 122.068 140.055 122.276C139.303 119.262 138.648 116.24 138.904 113.106L138.896 113.098Z" fill="#D5D5D5"/>
<path d="M150.792 151.519C153.358 151.432 151.719 153.814 152.519 154.949C154.117 157.22 157.283 156.78 158.363 159.466C159.474 162.232 160.433 165.102 162.32 167.541C162.64 167.948 161.6 168.204 161.073 168.356C155.9 164.159 152.303 158.771 149.305 152.927C149.561 152.207 150.36 152.063 150.792 151.519Z" fill="#D3D3D3"/>
<path d="M218.577 19.5459C218.505 18.5946 218.873 17.955 219.577 17.2115C222.598 14.0057 221.863 11.8952 217.578 11.0158C218.793 9.80058 220.48 9.65669 221.991 9.201C223.678 8.69735 225.341 9.10507 226.148 10.8239C226.971 12.5747 226.644 14.3175 225.005 15.4687C222.926 16.9237 220.728 18.1948 218.585 19.5379L218.577 19.5459Z" fill="#D6D6D6"/>
<path d="M202.5 18.8423C199.414 19.0502 196.329 19.25 193.243 19.4499C199.143 16.5958 205.131 13.9976 211.582 12.6226C211.023 16.0682 207.169 15.2208 205.466 17.2674C204.803 18.0668 203.508 18.3306 202.492 18.8343L202.5 18.8423Z" fill="#D8D8D8"/>
<path d="M150.791 151.52C150.751 152.471 150.208 152.887 149.304 152.927C146.146 148.042 145.179 142.406 143.756 136.93C146.011 135.714 145.723 138.952 147.29 138.936C147.29 139.168 147.29 139.4 147.29 139.632C147.569 140.559 147.274 141.495 147.314 142.422C148.961 145.02 150.599 147.618 149.648 150.944C149.624 151.024 150.392 151.328 150.783 151.528L150.791 151.52Z" fill="#D3D3D3"/>
<path d="M247.925 192.004C248.181 193.267 247.334 193.979 246.566 194.722C245.775 195.585 244.568 194.738 243.736 195.41C243.296 195.45 242.857 195.49 242.417 195.529C240.075 195.506 237.724 195.482 235.382 195.458C234.774 194.778 234.75 194.09 235.342 193.395C235.806 193.627 236.277 193.859 236.741 194.09C239.019 193.379 241.346 192.859 243.736 192.699C245.295 193.443 246.574 192.508 247.933 192.004H247.925Z" fill="#C7C7C7"/>
<path d="M236.029 176.638C234.718 174.752 238.1 176.047 237.42 174.592C239.978 175.535 242.545 176.486 245.103 177.43C243.456 178.597 239.954 178.349 238.883 177.078C238.116 176.167 236.981 176.822 236.029 176.638Z" fill="#C7C7C7"/>
<path d="M138.84 97.4126C138.84 102.465 138.848 107.526 138.856 112.578C137.537 107.526 137.912 102.465 138.84 97.4126Z" fill="#D5D5D5"/>
<path d="M243.728 195.41C244.503 194.474 245.607 194.898 246.558 194.722C247.989 194.77 249.412 194.81 250.843 194.858C248.541 195.929 246.11 195.418 243.728 195.41Z" fill="#BABABA"/>
<path d="M215.883 21.1769C216.307 19.8498 216.826 18.6746 218.585 19.546C217.906 20.4574 216.946 20.8971 215.883 21.1769Z" fill="#D6D6D6"/>
<path d="M227.651 173.145C229.026 174.44 230.857 174.664 232.544 175.24C229.73 177.222 227.075 179.501 223.606 180.316C223.078 180.444 222.479 180.124 221.895 180.132C222.91 181.036 224.805 181.012 224.861 182.93C223.614 184.074 222.215 184.281 220.672 183.626C218.042 182.419 215.068 182.235 212.349 181.923C207.065 181.307 202.284 179.645 197.616 177.342C196.288 176.079 193.994 176.151 193.195 174.152C193.267 173.601 193.602 173.289 194.122 173.153C200.174 173.113 205.866 174.408 210.695 178.23C211.846 176.735 210.007 175.08 211.686 174.408C212.869 173.936 213.892 174.944 214.82 175.543C220.456 179.189 221 179.125 225.085 173.801C225.772 172.905 226.772 173.257 227.659 173.161L227.651 173.145Z" fill="#CCCCCC"/>
<path d="M194.114 173.145C193.882 173.377 193.642 173.609 193.411 173.84C191.58 174.536 190.149 173.561 189.07 172.417C186 169.172 181.435 168.14 178.333 164.855C180.26 166.885 182.546 168.676 180.14 171.73C177.35 168.924 175.143 165.75 173.856 161.985C174.903 158.731 176.614 157.771 178.893 159.346C181.707 161.289 184.385 163.416 187.127 165.454C187.127 168.492 189.653 169.571 191.62 170.938C192.563 171.594 193.562 172.074 194.114 173.137V173.145Z" fill="#CDCDCD"/>
<path d="M180.139 171.738C181.61 168.316 178.364 166.773 176.981 164.503C178.46 163.623 179.404 164.359 180.251 165.134C183.073 167.717 186.887 168.932 189.509 171.754C190.612 172.937 192.131 173.129 193.418 173.848C194.226 175.727 197.216 174.968 197.615 177.334C192.379 176.91 188.182 173.936 184.185 171.098C182.274 169.739 182.482 170.371 181.89 171.666C181.474 172.577 180.835 174.136 180.147 171.746L180.139 171.738Z" fill="#C1C1C1"/>
<path d="M164.07 151.504C166.301 154.318 167.092 158.331 171.082 159.698C171.945 159.994 172.449 160.937 172.465 161.969C168.467 161.217 165.973 158.555 163.175 155.797C161.44 154.094 161.456 151.783 159.785 150.416C158.634 149.473 158.986 148.418 159.178 147.315C159.306 147.211 159.434 147.107 159.562 147.003C160.065 146.851 160.537 146.915 160.985 147.179C162.32 148.402 162.807 150.233 164.07 151.504Z" fill="#C3C3C3"/>
<path d="M224.861 182.922C223.43 181.619 221.671 181.02 219.872 180.916C219.712 179.725 220.376 179.581 220.887 179.501C223.198 179.125 226.46 180.924 227.059 176.735C228.091 177.102 228.618 174.856 230.009 176.311C231.352 177.71 231.688 175.607 232.551 175.24C234.086 174.784 234.71 176.591 236.045 176.639C235.997 177.094 235.749 177.814 235.374 177.55C233.063 175.919 231.248 178.046 230.849 179.117C229.721 182.187 226.971 181.891 224.861 182.922Z" fill="#C7C7C7"/>
<path d="M243.728 192.699C241.466 193.499 239.339 195.01 236.733 194.09C238.827 192.452 241.026 191.316 243.728 192.699Z" fill="#BBBBBB"/>
<path d="M235.334 193.395C235.35 194.082 235.358 194.77 235.374 195.457C234.806 195.457 234.207 195.553 233.663 195.426C232.52 195.162 231.257 194.714 231.688 193.227C232.248 191.324 233.447 192.587 234.406 192.931C234.726 193.051 235.022 193.235 235.326 193.387L235.334 193.395Z" fill="#BBBBBB"/>
<path d="M220.664 183.618C222.063 183.386 223.454 183.154 224.853 182.922C224.285 188.159 222.119 183.738 220.664 183.618Z" fill="#C7C7C7"/>
<path d="M147.322 142.414C146.322 141.494 146.962 140.559 147.298 139.624C148.289 140.543 148.281 141.47 147.322 142.414Z" fill="#C1C1C1"/>
<path d="M157.083 145.22C157.315 145.22 157.547 145.22 157.787 145.22C159.338 145.188 159.482 146.107 159.186 147.306L159.178 147.314C157.811 147.283 157.587 146.107 157.091 145.212L157.083 145.22Z" fill="#C3C3C3"/>
<path d="M154.981 97.037C155.948 96.9331 157.043 97.3568 157.779 96.3335C161.304 96.4374 163.399 98.1562 164.342 101.618C165.374 105.415 165.773 109.085 164.886 113.034C164.111 116.48 164.926 119.709 168.476 121.612C169.267 122.036 170.034 122.699 170.53 123.443C171.889 125.49 173.4 126.233 175.711 124.834C176.262 124.498 177.254 124.898 178.037 124.954C177.805 125.418 177.573 125.889 177.341 126.353C176.678 126.617 176.214 127.088 175.942 127.752C174.543 128.016 173.144 128.312 171.753 127.752C171.122 127.184 170.202 127.048 169.659 126.353C166.405 125.394 163.639 124.019 163.639 119.957C163.639 118.702 162.52 118.43 161.584 117.919C159.674 116.879 158.97 115.448 158.93 112.978C158.866 108.957 161.153 105.271 159.969 101.098C159.234 98.516 158.33 97.3808 155.684 98.4201C155.309 98.0283 154.549 97.8285 154.981 97.029V97.037Z" fill="#E4E4E4"/>
<path d="M151.495 74.6921C152.167 67.9527 152.007 61.0615 155.94 55.0176C157.131 53.1869 156.132 50.3168 158.482 48.8618C159.362 51.1323 159.306 53.1948 157.515 55.1135C156.004 56.7284 155.828 58.839 155.261 60.9256C154.005 65.5064 153.486 70.3191 151.495 74.7001V74.6921Z" fill="#E8E8E8"/>
<path d="M164.07 151.503C162.28 150.624 161.696 148.745 160.577 147.306C158.81 145.859 158.618 143.629 157.779 141.726C157.779 141.494 157.779 141.254 157.779 141.023C159.929 140.071 160.217 142.246 161.272 143.117C162.2 145.915 163.135 148.705 164.062 151.503H164.07Z" fill="#D5D5D5"/>
<path d="M171.753 127.76C173.152 127.792 174.551 127.184 175.943 127.76C174.544 128.815 173.144 128.815 171.753 127.76Z" fill="#E4E4E4"/>
<path d="M169.659 126.361C170.666 126.361 171.37 126.833 171.753 127.76C170.738 127.768 169.723 127.776 169.659 126.361Z" fill="#E4E4E4"/>
<path d="M150.8 99.8269C151.263 99.595 151.727 99.3632 152.191 99.1313C153.054 99.8269 153.71 100.794 153.454 101.826C152.175 106.95 153.542 112.019 153.606 117.103C153.662 121.828 153.198 126.577 154.293 131.245C155.58 134.163 157.955 136.746 157.091 140.319C154.101 135.986 152.798 131.181 152.071 125.945C151.047 118.542 152.183 111.211 152.039 103.856C151.975 100.355 149.496 101.402 148.001 100.522C148.761 99.611 149.632 99.1234 150.8 99.8189V99.8269Z" fill="#D5D5D5"/>
<path d="M157.083 140.327C157.131 137.001 154.565 134.475 154.285 131.253C155.908 131.469 156.14 132.756 156.372 134.012C157.036 137.577 159.706 140.047 161.273 143.125C159.986 142.63 159.402 140.959 157.779 141.031C157.547 140.799 157.315 140.567 157.083 140.327Z" fill="#D6D6D6"/>
<path d="M154.981 97.0366C155.213 97.5003 155.444 97.964 155.684 98.4277C154.517 98.4277 153.35 98.4277 152.191 98.4277C152.431 96.5649 153.886 97.1645 154.989 97.0366H154.981Z" fill="#DEDEDE"/>
<path d="M150.096 132.645C147.93 130.454 147.49 127.704 148.201 124.946C148.977 121.948 148.497 118.974 148.697 116C148.769 114.881 148.561 113.634 147.298 113.642C146.059 113.642 146.299 114.833 146.411 115.784C146.507 116.592 145.835 116.967 145.203 117.287C143.261 114.329 146.011 111.915 146.179 109.197C146.219 108.589 146.922 108.045 147.194 107.422C147.53 106.662 147.114 105.079 148.369 105.375C149.552 105.655 150.344 106.918 150.056 108.421C148.865 114.761 150.264 121.156 149.68 127.52C149.528 129.207 149.936 130.942 150.096 132.653V132.645Z" fill="#C7C7C7"/>
<path d="M145.204 117.982C145.108 118.95 145.531 120.045 144.508 120.781C144.844 119.877 142.781 118.374 145.204 117.982Z" fill="#C7C7C7"/>
<path d="M150.799 99.8271C149.864 100.059 148.937 100.291 148.001 100.523C147.17 99.2275 147.29 97.7725 147.298 96.3335C149.184 96.7812 149.488 98.7958 150.791 99.8191L150.799 99.8271Z" fill="#D9D9D9"/>
<path d="M157.779 141.727C159.186 143.349 160.049 145.244 160.577 147.307C160.113 147.307 159.649 147.307 159.186 147.307C158.722 146.611 158.25 145.916 157.787 145.22C157.787 144.061 157.787 142.894 157.787 141.735L157.779 141.727Z" fill="#CECECE"/>
<path d="M95.38 56.4798C84.8 53.9498 74.23 51.3598 63.6 49.1098C63.34 44.5698 62.57 40.0398 61.97 35.5098C61.02 28.3498 59.99 21.2098 58.99 14.0498C58.33 14.0898 57.66 14.1398 57 14.1798C56.46 14.9498 55.63 15.6498 55.43 16.5098C52.86 27.2498 50.22 37.9698 47.95 48.7698C43.03 49.5598 38.17 50.7798 33.31 51.9498C26.44 53.6098 19.6 55.3998 12.74 57.1298C14.76 59.1498 16.54 59.4198 18.32 59.6798C27.52 61.0398 36.71 62.5198 45.94 63.7098C46.53 63.7898 47.13 63.8498 47.72 63.9198C48.51 68.8498 49.74 73.7198 50.91 78.5798C52.57 85.4498 54.36 92.2898 56.09 99.1498C58.11 97.1298 58.38 95.3498 58.64 93.5698C60 84.3698 61.48 75.1798 62.67 65.9498C62.73 65.5098 62.77 65.0798 62.83 64.6398C67.36 64.3798 71.88 63.6098 76.4 63.0098C83.56 62.0598 90.7 61.0298 97.86 60.0298C97.82 59.3698 97.77 58.6998 97.73 58.0398C96.96 57.4998 96.26 56.6698 95.4 56.4698L95.38 56.4798Z" fill="white"/>
<path d="M39.06 41.2498C39 41.5198 39.01 41.7897 39.1 42.0497C39.17 42.2097 39.24 42.3697 39.3 42.5297C39.47 42.8197 39.7 43.0398 39.98 43.2098C40.02 43.2598 40.0301 43.3298 40.0701 43.3798C40.2101 43.5998 40.4 43.7698 40.64 43.8998C40.8 43.9698 40.96 44.0397 41.12 44.0997C41.48 44.1997 41.83 44.1997 42.19 44.0997C42.35 44.0297 42.51 43.9598 42.67 43.8998C42.97 43.7198 43.21 43.4797 43.39 43.1797C43.57 42.8897 43.74 42.5898 43.83 42.2498C43.89 42.0498 43.9 41.8298 43.92 41.6198C43.92 41.5798 43.92 41.5398 43.92 41.4998C43.9 41.3298 43.87 41.1198 43.85 40.9498C43.85 40.9398 43.85 40.9297 43.85 40.9197C43.85 40.8997 43.85 40.8797 43.84 40.8597C43.84 40.8397 43.8301 40.8097 43.8201 40.7897C43.7501 40.6097 43.67 40.4298 43.59 40.2498C43.41 39.9498 43.17 39.7097 42.87 39.5297C42.56 39.3497 42.22 39.2598 41.85 39.2598C41.54 39.2998 41.21 39.3197 40.91 39.4197C40.77 39.4597 40.6401 39.5198 40.5101 39.5698C40.2501 39.6298 40.02 39.7497 39.83 39.9297C39.61 40.0697 39.44 40.2598 39.31 40.4998C39.16 40.7298 39.0801 40.9798 39.0701 41.2498H39.06Z" fill="white"/>
<path d="M43.4901 71.0002C43.4901 71.0002 43.4201 70.8202 43.3801 70.7402C43.3801 70.7202 43.3601 70.7102 43.3601 70.7002C43.3001 70.6102 43.2301 70.5402 43.1701 70.4502C43.1701 70.4502 43.1701 70.4302 43.1701 70.4202C43.1501 70.3602 43.1401 70.3102 43.1301 70.2502L43.1501 70.4202C43.1501 70.4202 43.1401 70.4102 43.1301 70.4002C43.1001 70.1102 43.0501 69.8202 42.9001 69.5602C42.7701 69.3302 42.6001 69.1402 42.3801 68.9902C42.1901 68.8102 41.9601 68.6902 41.7001 68.6302C41.3401 68.5302 40.9901 68.5302 40.6301 68.6302C40.4401 68.7002 40.2501 68.7702 40.0701 68.8702C40.0601 68.8702 40.0401 68.8902 40.0301 68.9002C39.8901 69.0002 39.7601 69.1101 39.6201 69.2201C39.4601 69.3601 39.3301 69.5301 39.2301 69.7201C39.1501 69.8601 39.0901 70.0302 39.0401 70.1902C39.0301 70.2202 39.0001 70.2402 38.9901 70.2702C38.9401 70.3702 38.9401 70.4901 38.9201 70.6001C38.8901 70.6201 38.8601 70.6002 38.8301 70.6202C38.6901 70.7302 38.5601 70.8302 38.4201 70.9402C38.1701 71.1902 38.0001 71.4902 37.9001 71.8302C37.8601 71.9402 37.8301 72.0501 37.8201 72.1601C37.7801 72.3901 37.7201 72.6902 37.7301 72.9402C37.7401 73.1802 37.7601 73.4301 37.8401 73.6601C37.9901 74.0701 38.1201 74.3502 38.4401 74.6702C38.4401 74.6702 38.4501 74.6702 38.4601 74.6802C38.5001 74.7202 38.8201 74.9702 38.8701 75.0002C38.8801 75.0002 38.8901 75.0202 38.9001 75.0202C39.0701 75.1202 39.2601 75.1902 39.4401 75.2502C39.6601 75.3202 39.9001 75.3401 40.1301 75.3401C40.4301 75.3401 40.7601 75.2902 41.0401 75.1802C41.3501 75.0602 41.6601 74.9402 41.9301 74.7502C42.2001 74.5602 42.4801 74.3602 42.7101 74.1202C42.8801 73.9402 43.0301 73.7301 43.1801 73.5401C43.2201 73.4801 43.2701 73.4201 43.3001 73.3501C43.5501 72.9001 43.6701 72.4801 43.6901 71.9701C43.6901 71.7301 43.6701 71.4702 43.5901 71.2402C43.5601 71.1602 43.4901 70.9902 43.4801 70.9802L43.4901 71.0002Z" fill="white"/>
<path d="M73.9201 70.6899C73.8701 70.6099 73.7901 70.5699 73.7401 70.5099C73.7201 70.4699 73.7301 70.4199 73.7101 70.3799C73.5301 70.0799 73.2901 69.8399 72.9901 69.6599C72.6801 69.4799 72.3401 69.3899 71.9701 69.3799C71.9301 69.3799 71.9001 69.3799 71.8601 69.3799H71.8401C71.6901 69.3999 71.4501 69.4299 71.3001 69.4499C71.2901 69.4499 71.2801 69.4499 71.2701 69.4499C70.7301 69.5999 70.2701 69.9499 69.9901 70.4299C69.9901 70.4299 69.9901 70.4399 69.9801 70.4499C69.9601 70.4899 69.7901 70.8899 69.7801 70.9399C69.7801 70.9399 69.7801 70.9399 69.7801 70.9499C69.7801 70.9499 69.7801 70.9699 69.7801 70.9799C69.7601 71.0799 69.7201 71.4298 69.7101 71.5298C69.7101 71.5298 69.7101 71.5399 69.7101 71.5499C69.7101 71.5999 69.7101 71.6499 69.7101 71.7099C69.7001 71.9899 69.7601 72.2499 69.8801 72.4899C69.9601 72.7399 70.1001 72.9599 70.3001 73.1399C70.4801 73.3399 70.7 73.4799 70.95 73.5599C71.04 73.5999 71.1401 73.5899 71.2201 73.6199C71.2201 73.6199 71.2301 73.6299 71.2401 73.6299C71.2401 73.6299 71.2501 73.6299 71.2601 73.6299C71.2601 73.6299 71.2601 73.6299 71.2701 73.6299C71.3001 73.6299 71.3201 73.6299 71.3501 73.6399C71.4701 73.6699 71.5901 73.7298 71.7201 73.7198C71.7601 73.7198 71.8101 73.7099 71.8501 73.6999C71.8801 73.6999 71.92 73.6999 71.95 73.6999C72.02 73.6999 72.0901 73.6999 72.1601 73.6999C72.1001 73.6999 72.0501 73.6799 71.9901 73.6799C71.9901 73.6799 71.9901 73.6799 72.0001 73.6799C72.2501 73.7299 72.4901 73.7199 72.7401 73.6499C73.0001 73.5899 73.2301 73.4699 73.4201 73.2899C73.6401 73.1499 73.8101 72.9598 73.9401 72.7198C74.0101 72.5598 74.0801 72.3999 74.1401 72.2399C74.2401 71.8799 74.2401 71.5299 74.1401 71.1699C74.0701 71.0099 74.0001 70.8499 73.9401 70.6899H73.9201Z" fill="white"/>
<path d="M70.94 43.3499C71.12 43.6499 71.3599 43.8899 71.6599 44.0699C71.8199 44.1399 71.9799 44.2099 72.1399 44.2699C72.3399 44.3199 72.5299 44.2699 72.7299 44.2699C72.8399 44.2899 72.94 44.3599 73.06 44.3599L73.38 44.3199C73.38 44.3199 73.45 44.3499 73.5 44.3499C73.78 44.3599 74.0399 44.2999 74.2799 44.1799C74.5299 44.0999 74.75 43.9599 74.93 43.7599C75.04 43.6199 75.14 43.4899 75.24 43.3499C75.42 43.0399 75.51 42.6999 75.51 42.3299C75.49 42.1499 75.46 41.9699 75.44 41.7899C75.34 41.4499 75.1699 41.1499 74.9199 40.8999C74.8899 40.8699 74.86 40.8299 74.82 40.7999C74.74 40.7299 74.4899 40.5399 74.4099 40.4799C74.4099 40.4799 74.4099 40.4799 74.3999 40.4799C74.3999 40.4799 74.38 40.4798 74.38 40.4698C74.38 40.4698 74.2599 40.4199 74.1599 40.3799C74.1199 40.3699 74.1 40.3299 74.06 40.3199C74.02 40.2999 73.9799 40.3099 73.9499 40.2899C73.9399 40.2899 73.8999 40.2699 73.8999 40.2699C73.8999 40.2699 73.8999 40.2699 73.8899 40.2699C73.8899 40.2699 73.89 40.2699 73.88 40.2699C73.88 40.2699 73.7899 40.2599 73.7299 40.2499C73.5799 40.2099 73.4499 40.1499 73.2899 40.1499C73.2699 40.1499 73.2399 40.1499 73.2199 40.1499C73.2099 40.1499 73.19 40.1499 73.18 40.1499C73 40.1699 72.81 40.1998 72.62 40.2198C72.57 40.2198 72.53 40.2399 72.49 40.2499C72.45 40.2599 72.41 40.2799 72.37 40.2999C72.3 40.3299 72.2199 40.3599 72.1499 40.3899C71.8899 40.4499 71.6699 40.5699 71.4799 40.7499C71.2599 40.8899 71.0899 41.0799 70.9599 41.3099C70.8099 41.5399 70.7299 41.7899 70.7199 42.0599C70.6599 42.3299 70.67 42.5999 70.76 42.8599C70.83 43.0199 70.8999 43.1798 70.9599 43.3398L70.94 43.3499Z" fill="white"/>
<path d="M72.1399 40.3901C72.1699 40.3801 72.1999 40.3601 72.2299 40.3501C72.1999 40.3601 72.1699 40.3701 72.1499 40.3901H72.1399Z" fill="white"/>
<path d="M103.54 57.3899C102.56 57.4599 101.59 57.6399 100.62 57.8199C100.31 57.8799 100.13 58.2599 100.21 58.5499C100.3 58.8799 100.62 59.0199 100.94 58.9599C101.8 58.7999 102.59 58.6499 103.41 58.5799C103.86 58.5399 104.32 58.5299 104.77 58.5799C104.77 58.5799 104.87 58.5899 104.88 58.5999C104.91 58.5999 104.95 58.6099 104.98 58.6199C105.08 58.6399 105.17 58.6599 105.26 58.6899C105.3 58.6999 105.34 58.7199 105.38 58.7299C105.38 58.7299 105.38 58.7299 105.39 58.7299C105.42 58.7499 105.47 58.7799 105.51 58.7999C105.75 59.0099 106.11 59.0399 106.35 58.7999C106.56 58.5899 106.59 58.1699 106.35 57.9599C105.59 57.3099 104.48 57.3099 103.53 57.3799L103.54 57.3899Z" fill="white"/>
<path d="M56.35 105.07C56.32 105.94 56.23 106.8 56.23 107.67C56.23 108.43 57.41 108.43 57.41 107.67C57.41 105.93 57.85 104.03 57.22 102.35C57.11 102.05 56.82 101.85 56.49 101.94C56.2 102.02 55.96 102.37 56.08 102.67C56.37 103.44 56.37 104.26 56.34 105.08L56.35 105.07Z" fill="white"/>
<path d="M58.0001 4.04006C57.7101 4.12006 57.48 4.47004 57.59 4.77004C58.16 6.36004 57.68 8.17005 57.42 9.78005C57.37 10.1 57.5 10.4201 57.83 10.5101C58.11 10.5901 58.51 10.4101 58.56 10.1001C58.85 8.28006 59.37 6.26004 58.73 4.46004C58.62 4.16004 58.3301 3.96004 58.0001 4.05004V4.04006Z" fill="white"/>
<path d="M9.54992 55.9899C8.19992 56.4499 6.64989 56.1399 5.20989 56.1399C4.44989 56.1399 4.44989 57.3199 5.20989 57.3199C6.74989 57.3199 8.36992 57.6399 9.85992 57.1299C10.1599 57.0299 10.3599 56.72 10.2699 56.4C10.1899 56.11 9.84991 55.8799 9.53991 55.9899H9.54992Z" fill="white"/>
<path d="M1.35999 56.2301C1.35999 56.2301 1.35998 56.2101 1.34998 56.2001C1.30998 56.1401 1.24999 56.0801 1.17999 56.0501C1.03999 55.9801 0.879971 55.9401 0.719971 55.9901C0.719971 55.9901 0.719951 55.9901 0.699951 55.9901C0.679951 55.9901 0.669963 55.9901 0.649963 55.9901C0.599963 55.9901 0.55 56.0001 0.5 56.0301C0.43 56.0501 0.359998 56.0901 0.309998 56.1501C0.249998 56.2101 0.209993 56.2901 0.179993 56.3701C0.149993 56.4101 0.109956 56.4601 0.0799561 56.5001C0.0799561 56.5001 0.0799561 56.5001 0.0799561 56.5101C0.0599561 56.5501 0.0299585 56.6201 0.0199585 56.6601V56.6801C0.0099585 56.7301 0 56.8001 0 56.8501C0 56.8501 0 56.8501 0 56.8601C0 56.8601 0 56.8601 0 56.8701C0 56.9201 0.0099585 56.9901 0.0199585 57.0401C0.0199585 57.0501 0.0199683 57.0601 0.0299683 57.0701C0.0599683 57.1401 0.0800049 57.2201 0.130005 57.2801C0.220005 57.4101 0.320002 57.5101 0.440002 57.6101C0.480002 57.6401 0.519998 57.6701 0.559998 57.7001C0.609998 57.7201 0.649951 57.7401 0.699951 57.7601C0.749951 57.7601 0.799985 57.7701 0.859985 57.7801C0.939985 57.7801 1.01997 57.7701 1.08997 57.7301C1.13997 57.7201 1.17997 57.6901 1.21997 57.6501C1.25997 57.6201 1.29996 57.5901 1.32996 57.5401C1.36996 57.5001 1.38997 57.4601 1.40997 57.4101C1.44997 57.3401 1.45996 57.2601 1.45996 57.1801C1.45996 57.1701 1.45996 57.1601 1.45996 57.1501C1.46996 57.1401 1.47999 57.1201 1.48999 57.1101L1.44995 57.1401C1.49995 57.1001 1.54996 57.0601 1.57996 57.0001C1.64996 56.8601 1.68995 56.7001 1.63995 56.5401C1.59995 56.4001 1.51 56.2701 1.38 56.2001L1.35999 56.2301Z" fill="white"/>
<path d="M56.9101 2.19998C57.0201 2.30998 57.1801 2.37 57.3301 2.37C57.4801 2.37 57.6501 2.30998 57.7501 2.19998C57.8501 2.08998 57.9301 1.94 57.9201 1.78C57.9201 1.67 57.8801 1.56998 57.8301 1.47998C58.0601 1.47998 58.2701 1.33998 58.3901 1.13998C58.4601 1.01998 58.5001 0.87999 58.5201 0.73999C58.5501 0.63999 58.5501 0.529993 58.5201 0.429993C58.5001 0.349993 58.4701 0.28998 58.4101 0.22998C58.3001 0.0799805 58.1301 0 57.9501 0C57.7501 0 57.5401 0.0199866 57.3501 0.0799866C57.1301 0.139987 56.9501 0.249984 56.7701 0.389984C56.4501 0.659984 56.3401 1.13999 56.4801 1.51999C56.5701 1.77999 56.7201 1.99998 56.9201 2.19998H56.9101Z" fill="white"/>
<path d="M109.86 57.5698C109.8 57.4798 109.73 57.4098 109.65 57.3598C109.58 57.3198 109.51 57.2898 109.43 57.2898C109.4 57.2898 109.36 57.2898 109.33 57.2898C109.3 57.2598 109.28 57.2298 109.24 57.2098C109.17 57.1698 109.1 57.1398 109.02 57.1398C108.94 57.1198 108.86 57.1298 108.78 57.1498C108.64 57.1998 108.5 57.2898 108.43 57.4198C108.42 57.4498 108.4 57.4898 108.39 57.5198C108.33 57.5798 108.27 57.6198 108.22 57.6898C108.17 57.7698 108.12 57.8498 108.07 57.9298C108.05 57.9798 108.03 58.0198 108.01 58.0698C108.01 58.1198 108 58.1698 107.99 58.2298C107.99 58.2798 108 58.3298 108.01 58.3898C108.03 58.4698 108.06 58.5298 108.12 58.5898C108.15 58.6298 108.18 58.6698 108.23 58.6998C108.27 58.7398 108.31 58.7598 108.36 58.7798C108.41 58.8098 108.46 58.8198 108.51 58.8198C108.54 58.8198 108.58 58.8198 108.61 58.8198C108.64 58.8398 108.67 58.8698 108.7 58.8798C108.77 58.9198 108.85 58.9298 108.93 58.9298C108.98 58.9298 109.03 58.9198 109.09 58.9098C109.19 58.8798 109.28 58.8298 109.35 58.7598C109.48 58.5898 109.64 58.4598 109.78 58.2898C109.81 58.2498 109.84 58.2098 109.87 58.1698C109.91 58.0998 109.94 58.0298 109.94 57.9498C109.95 57.8998 109.95 57.8498 109.94 57.7898C109.94 57.7098 109.91 57.6398 109.87 57.5698H109.86Z" fill="white"/>
<path d="M58.07 110.81C58.07 110.81 58.08 110.72 58.07 110.68C58.05 110.57 58.02 110.55 57.96 110.48C57.91 110.42 57.86 110.37 57.79 110.33C57.7 110.28 57.59 110.25 57.48 110.25C57.43 110.25 57.36 110.25 57.31 110.27C57.24 110.29 57.18 110.35 57.13 110.4C57.1 110.38 57.08 110.36 57.05 110.35C56.93 110.3 56.79 110.28 56.66 110.32C56.56 110.35 56.47 110.4 56.4 110.47C56.29 110.57 56.23 110.74 56.23 110.89C56.23 110.97 56.22 111.05 56.21 111.13C56.21 111.17 56.21 111.21 56.21 111.25C56.21 111.32 56.22 111.39 56.24 111.45C56.24 111.47 56.24 111.48 56.25 111.5C56.26 111.55 56.29 111.59 56.32 111.63C56.33 111.65 56.34 111.67 56.35 111.69C56.39 111.75 56.45 111.81 56.52 111.84C56.55 111.86 56.58 111.86 56.61 111.87C56.65 111.89 56.69 111.9 56.73 111.91C56.74 111.91 56.76 111.91 56.77 111.91C56.79 111.91 56.8 111.91 56.83 111.91C56.87 111.91 56.91 111.91 56.95 111.89C56.95 111.89 56.97 111.89 56.98 111.89H56.99C57.01 111.89 57.02 111.87 57.03 111.87C57.06 111.9 57.1 111.93 57.13 111.95C57.31 112.04 57.51 112.08 57.71 112.02C57.78 112 57.85 111.97 57.91 111.94C57.93 111.93 57.95 111.92 57.97 111.9C57.98 111.9 57.99 111.88 58.01 111.87C58.09 111.84 58.16 111.8 58.21 111.74C58.31 111.63 58.39 111.48 58.38 111.32C58.38 111.17 58.33 111 58.21 110.9C58.15 110.85 58.09 110.83 58.03 110.8L58.07 110.81Z" fill="white"/>
<path d="M79.6 76.6901C79.6 76.6901 79.47 76.5701 79.43 76.5701C79.4 76.5401 79.37 76.5201 79.34 76.4901C79.2 76.3801 79.0701 76.2701 78.9401 76.1501C78.6501 75.9001 78.3601 75.6501 78.0601 75.4101C77.5001 74.9601 76.86 74.4401 76.14 74.3001C75.84 74.2401 75.49 74.3901 75.41 74.7101C75.34 75.0001 75.5001 75.3701 75.8201 75.4401C75.8901 75.4501 75.95 75.4701 76.02 75.4901C76.05 75.5001 76.0901 75.5101 76.1201 75.5301C76.2601 75.6001 76.4 75.6701 76.54 75.7601C76.69 75.8501 76.83 75.9501 76.97 76.0501C77.01 76.0801 77.05 76.1101 77.08 76.1301C77.09 76.1301 77.08 76.1301 77.09 76.1401C77.09 76.1401 77.09 76.1401 77.11 76.1501C77.19 76.2101 77.26 76.2701 77.34 76.3301C77.9 76.7901 78.43 77.2901 79.02 77.7001C79.27 77.8801 79.69 77.7501 79.83 77.4901C79.99 77.1901 79.8901 76.8701 79.6201 76.6801L79.6 76.6901Z" fill="white"/>
<path d="M37.98 77.03C37.7 76.88 37.34 76.96 37.17 77.24C36.51 78.36 35.88 79.49 35.17 80.57C35 80.83 35.11 81.24 35.38 81.38C35.68 81.54 36.01 81.44 36.19 81.17C36.9 80.09 37.53 78.96 38.19 77.84C38.35 77.57 38.26 77.18 37.98 77.03Z" fill="white"/>
<path d="M36.87 36.4601C37.15 36.7201 37.43 36.9701 37.69 37.2501C37.81 37.3801 37.93 37.5101 38.05 37.6501C38.07 37.6701 38.0899 37.69 38.0999 37.72C38.0999 37.73 38.1499 37.7801 38.1599 37.8001C38.2199 37.8801 38.2799 37.9701 38.3299 38.0501C38.4899 38.3101 38.8699 38.4401 39.1399 38.2601C39.3999 38.0901 39.5299 37.7301 39.3499 37.4501C38.9299 36.7801 38.3599 36.2301 37.7799 35.7001C37.4999 35.4401 37.2199 35.19 36.9599 34.91C36.8399 34.78 36.7299 34.6501 36.6099 34.5101C36.6099 34.5101 36.6099 34.5101 36.6099 34.5001C36.5799 34.4601 36.5499 34.4201 36.5199 34.3801C36.4599 34.3001 36.4099 34.2101 36.3599 34.1301C36.1999 33.8601 35.82 33.7401 35.55 33.9201C35.28 34.0901 35.1699 34.4501 35.3399 34.7301C35.7399 35.4001 36.31 35.9501 36.88 36.4801L36.87 36.4601Z" fill="white"/>
<path d="M75.2299 38.5002C75.6699 37.9802 76.1199 37.4702 76.6099 36.9902C76.8599 36.7502 77.11 36.5102 77.38 36.2902C77.44 36.2402 77.5099 36.1802 77.5799 36.1302C77.5799 36.1302 77.5799 36.1302 77.5899 36.1302C77.6199 36.1102 77.66 36.0802 77.69 36.0602C77.82 35.9602 77.9599 35.8702 78.0999 35.7802C78.3599 35.6202 78.49 35.2402 78.31 34.9702C78.14 34.7102 77.78 34.5802 77.5 34.7602C76.29 35.5202 75.29 36.5902 74.38 37.6802C74.18 37.9202 74.13 38.2902 74.38 38.5202C74.6 38.7202 75.0099 38.7702 75.2199 38.5202L75.2299 38.5002Z" fill="white"/>
<path d="M301.393 52.71C299.963 43.62 298.153 34.59 296.563 25.52C295.793 21.1 295.173 16.65 294.493 12.21C289.803 26.41 286.593 40.4299 283.713 54.4999C271.443 56.4099 259.173 58.36 246.923 60.4C245.423 60.65 244.043 61.6499 242.603 62.3099C242.603 62.8499 242.603 63.3999 242.603 63.9399C245.823 64.5399 249.023 65.28 252.263 65.71C263.083 67.17 273.913 68.5599 284.743 69.9199C286.693 82.4999 288.693 95.08 290.793 107.64C291.043 109.14 292.043 110.52 292.703 111.96C293.243 111.96 293.793 111.96 294.333 111.96C294.933 108.74 295.673 105.54 296.103 102.3C297.503 91.9099 298.833 81.5099 300.143 71.1199C300.713 71.0699 301.293 71.0999 301.853 71.0099C310.943 69.5799 319.973 67.7699 329.043 66.1799C333.463 65.4099 337.913 64.7899 342.353 64.1099C328.623 59.5799 315.063 56.4299 301.453 53.6199C301.423 53.3199 301.443 53.01 301.393 52.71Z" fill="white"/>
<path d="M313.283 44.7899C315.153 44.8099 316.713 43.1999 316.633 41.3299C316.563 39.4599 314.943 38.0199 313.033 38.1299C311.223 38.2299 309.933 39.5499 309.903 41.3299C309.863 43.1899 311.413 44.7699 313.283 44.7899Z" fill="white"/>
<path d="M273.113 76.6402C271.303 76.7402 270.013 78.0602 269.983 79.8402C269.943 81.7002 271.493 83.2802 273.363 83.3002C275.233 83.3202 276.793 81.7102 276.713 79.8402C276.643 77.9702 275.023 76.5302 273.113 76.6402Z" fill="white"/>
<path d="M269.983 44.7899C271.853 44.8099 273.413 43.1999 273.333 41.3299C273.263 39.4599 271.643 38.0199 269.733 38.1299C267.923 38.2299 266.633 39.5499 266.603 41.3299C266.563 43.1899 268.113 44.7699 269.983 44.7899Z" fill="white"/>
<path d="M311.433 77.8702C309.623 77.9702 308.333 79.2902 308.303 81.0702C308.263 82.9302 309.813 84.5102 311.683 84.5302C313.553 84.5502 315.112 82.9402 315.032 81.0702C314.962 79.2002 313.343 77.7602 311.433 77.8702Z" fill="white"/>
<path d="M317.603 37.3399C317.903 37.4999 318.293 37.4198 318.463 37.1098C318.503 37.0498 318.533 36.9898 318.573 36.9298C318.593 36.8998 318.613 36.8699 318.633 36.8399C318.743 36.7099 318.853 36.5899 318.973 36.4699C319.103 36.3499 319.233 36.2298 319.373 36.1198C319.373 36.1198 319.393 36.0999 319.413 36.0899C319.423 36.0899 319.493 36.0298 319.503 36.0198C319.573 35.9698 319.653 35.9098 319.733 35.8598C320.033 35.6598 320.343 35.4798 320.673 35.3298C320.673 35.3298 320.713 35.3098 320.733 35.2998C320.753 35.2998 320.773 35.2799 320.783 35.2799C320.863 35.2499 320.933 35.2198 321.013 35.1998C321.163 35.1498 321.313 35.1099 321.463 35.0899C321.793 35.0399 322.003 34.6098 321.903 34.3098C321.793 33.9598 321.473 33.8098 321.123 33.8698C320.383 33.9898 319.663 34.3698 319.053 34.7898C318.403 35.2298 317.773 35.7798 317.383 36.4598C317.223 36.7498 317.303 37.1598 317.613 37.3198L317.603 37.3399Z" fill="white"/>
<path d="M320.193 86.6499C319.653 86.2699 319.103 85.8799 318.573 85.4799C318.543 85.4599 318.513 85.4299 318.483 85.4099C318.413 85.3599 318.343 85.2999 318.273 85.2499C318.143 85.1499 318.013 85.0399 317.883 84.9399C317.623 84.7299 317.373 84.5099 317.133 84.2799C316.893 84.0599 316.473 84.0199 316.243 84.2799C316.023 84.5199 315.983 84.9299 316.243 85.1699C317.273 86.1299 318.423 86.9499 319.563 87.7499C319.833 87.9399 320.273 87.8099 320.423 87.5199C320.593 87.1999 320.483 86.8599 320.193 86.6599V86.6499Z" fill="white"/>
<path d="M268.312 87.41C268.332 87.37 268.383 87.27 268.312 87.41V87.41Z" fill="white"/>
<path d="M268.803 84.7C268.293 84.96 267.913 85.4801 267.633 85.9701C267.333 86.4701 267.103 87.01 266.923 87.57C266.823 87.88 267.042 88.27 267.362 88.35C267.712 88.43 268.033 88.25 268.143 87.91C268.183 87.8 268.223 87.69 268.263 87.58C268.283 87.53 268.303 87.48 268.323 87.43C268.323 87.43 268.323 87.43 268.323 87.44C268.333 87.41 268.342 87.38 268.362 87.36C268.472 87.12 268.592 86.8801 268.722 86.6501C268.782 86.5401 268.853 86.43 268.923 86.33C268.953 86.29 268.983 86.2501 269.013 86.2101C269.033 86.1901 269.043 86.1701 269.063 86.1501C269.143 86.0601 269.223 85.9801 269.303 85.9001C269.303 85.9001 269.303 85.9001 269.313 85.9001C269.363 85.8701 269.403 85.84 269.453 85.82C269.743 85.67 269.853 85.2301 269.683 84.9601C269.493 84.6601 269.133 84.57 268.823 84.73L268.803 84.7Z" fill="white"/>
<path d="M265.252 38.2302C265.532 38.4002 265.952 38.3002 266.112 38.0002C266.272 37.7002 266.192 37.3202 265.882 37.1402C265.782 37.0802 265.682 37.0202 265.592 36.9502C265.542 36.9102 265.483 36.8802 265.433 36.8402C265.413 36.8302 265.402 36.8202 265.382 36.8002C265.182 36.6402 264.993 36.4802 264.813 36.3002C264.633 36.1202 264.473 35.9402 264.313 35.7502C264.303 35.7402 264.292 35.7202 264.282 35.7102C264.242 35.6602 264.203 35.6002 264.173 35.5502C264.103 35.4502 264.042 35.3502 263.982 35.2402C263.822 34.9502 263.402 34.8302 263.122 35.0102C262.832 35.2002 262.722 35.5702 262.892 35.8702C263.442 36.8302 264.302 37.6702 265.252 38.2302Z" fill="white"/>
<path d="M294.073 4.47013C293.733 4.49013 293.443 4.75007 293.443 5.10007C293.453 6.30007 293.583 7.50011 293.583 8.70011C293.583 9.03011 293.873 9.35011 294.213 9.33011C294.553 9.31011 294.843 9.05011 294.843 8.70011C294.843 7.50011 294.713 6.30007 294.703 5.10007C294.703 4.77007 294.413 4.45013 294.073 4.47013Z" fill="white"/>
<path d="M293.953 122.04C294.303 121.94 294.453 121.6 294.393 121.26C294.093 119.51 293.983 117.73 293.983 115.95C293.983 115.14 292.723 115.14 292.723 115.95C292.723 117.84 292.853 119.73 293.173 121.6C293.233 121.94 293.643 122.12 293.953 122.04Z" fill="white"/>
<path d="M236.673 62.5898C236.003 62.7998 235.333 62.7597 234.603 62.7297C233.843 62.6997 233.083 62.6798 232.353 62.8798C232.023 62.9698 231.823 63.3297 231.913 63.6597C232.003 63.9897 232.363 64.1897 232.693 64.0997C233.333 63.9297 234.053 63.9698 234.763 63.9998C235.513 64.0298 236.283 64.0298 237.013 63.8098C237.343 63.7098 237.543 63.3698 237.453 63.0298C237.363 62.7098 237.003 62.4898 236.673 62.5898Z" fill="white"/>
<path d="M349.142 63.5702C347.852 63.4302 346.552 63.4302 345.252 63.4302C344.922 63.4302 344.602 63.7202 344.622 64.0602C344.642 64.4002 344.902 64.6902 345.252 64.6902C346.552 64.6902 347.852 64.6902 349.142 64.8302C349.472 64.8702 349.792 64.5102 349.772 64.2002C349.752 63.8302 349.492 63.6102 349.142 63.5702Z" fill="white"/>
<path d="M354.792 64.23C354.822 64.15 354.822 64.06 354.802 63.98C354.802 63.9 354.772 63.82 354.732 63.75C354.682 63.67 354.602 63.6 354.512 63.54C354.492 63.41 354.442 63.28 354.342 63.19C354.302 63.16 354.252 63.12 354.212 63.09C354.112 63.03 354.012 63 353.892 63C353.722 62.98 353.562 63 353.392 63.02C353.342 63.02 353.302 63.04 353.262 63.05C353.182 63.08 353.092 63.11 353.012 63.16C352.942 63.21 352.862 63.26 352.802 63.33C352.742 63.4 352.682 63.47 352.642 63.55C352.552 63.73 352.512 63.9 352.502 64.1C352.502 64.21 352.522 64.32 352.532 64.43C352.542 64.5 352.553 64.57 352.573 64.64C352.623 64.85 352.802 65.03 353.012 65.08C353.142 65.11 353.282 65.13 353.412 65.13C353.582 65.25 353.792 65.31 353.992 65.25C354.182 65.2 354.322 65.07 354.432 64.91C354.432 64.91 354.452 64.91 354.462 64.9C354.532 64.86 354.592 64.81 354.642 64.74C354.702 64.68 354.732 64.61 354.752 64.53C354.752 64.47 354.762 64.42 354.772 64.36C354.772 64.33 354.752 64.3 354.742 64.27C354.742 64.26 354.752 64.24 354.752 64.23H354.792Z" fill="white"/>
<path d="M294.892 124.72C294.842 124.63 294.773 124.54 294.683 124.49C294.633 124.47 294.582 124.45 294.532 124.43C294.442 124.41 294.362 124.42 294.272 124.43C294.252 124.43 294.233 124.43 294.203 124.43C294.123 124.44 294.052 124.46 293.972 124.49C293.872 124.53 293.762 124.57 293.662 124.63C293.542 124.71 293.472 124.77 293.392 124.88C293.322 124.97 293.262 125.07 293.232 125.19C293.192 125.34 293.202 125.47 293.232 125.62C293.232 125.64 293.232 125.66 293.252 125.67C293.282 125.74 293.302 125.81 293.342 125.87C293.392 125.95 293.452 126.03 293.522 126.09C293.602 126.16 293.682 126.22 293.772 126.27C293.942 126.37 294.133 126.44 294.323 126.47C294.433 126.5 294.542 126.5 294.662 126.47C294.742 126.45 294.812 126.41 294.872 126.36C294.942 126.32 294.992 126.26 295.032 126.18C295.092 126.08 295.122 125.98 295.122 125.86C295.122 125.86 295.122 125.86 295.122 125.85C295.152 125.68 295.212 125.53 295.212 125.35C295.212 125.2 295.163 125.04 295.073 124.92C295.013 124.84 294.952 124.78 294.892 124.72Z" fill="white"/>
<path d="M229.903 62.4601C229.843 62.3701 229.773 62.2901 229.673 62.2301C229.573 62.1701 229.473 62.1401 229.353 62.1401C229.193 62.1401 229.043 62.1401 228.883 62.1801C228.823 62.1901 228.763 62.2201 228.703 62.2401C228.663 62.2601 228.623 62.2701 228.593 62.2901C228.533 62.3201 228.483 62.3701 228.433 62.4101C228.433 62.4101 228.413 62.4301 228.403 62.4301C228.383 62.4501 228.363 62.4801 228.343 62.5101C228.343 62.5101 228.323 62.5101 228.313 62.5201C228.243 62.5601 228.183 62.6101 228.133 62.6801C228.093 62.7201 228.063 62.7701 228.053 62.8201C228.013 62.9001 227.993 62.9801 228.003 63.0601C228.003 63.1101 228.003 63.1702 228.003 63.2202C228.003 63.3202 228.023 63.4201 228.043 63.5101C228.043 63.5501 228.063 63.5901 228.073 63.6301C228.103 63.7101 228.133 63.7901 228.183 63.8701C228.273 64.0201 228.383 64.1202 228.523 64.2202C228.663 64.3102 228.813 64.3401 228.973 64.3601C229.003 64.3601 229.023 64.3601 229.053 64.3601C229.133 64.3601 229.213 64.3501 229.293 64.3201C229.463 64.2601 229.563 64.2001 229.703 64.0901C229.723 64.0701 229.743 64.0502 229.763 64.0302C229.813 63.9702 229.873 63.9001 229.913 63.8301C229.953 63.7601 229.983 63.6801 230.013 63.6001C230.023 63.5701 230.033 63.5301 230.043 63.5001C230.073 63.3601 230.093 63.2201 230.073 63.0801C230.063 62.9701 230.053 62.8701 230.023 62.7701C229.993 62.6601 229.943 62.5601 229.903 62.4601Z" fill="white"/>
<path d="M293.122 2.39001C293.122 2.39001 293.173 2.45998 293.193 2.47998C293.223 2.50998 293.242 2.55002 293.272 2.58002C293.302 2.61002 293.332 2.63997 293.362 2.65997C293.402 2.68997 293.452 2.73001 293.492 2.76001C293.562 2.81001 293.642 2.83002 293.722 2.83002C293.782 2.85002 293.832 2.85002 293.892 2.83002C293.932 2.83002 293.972 2.79998 294.012 2.78998C294.012 2.78998 294.023 2.78998 294.033 2.78998C294.113 2.81998 294.203 2.81999 294.283 2.79999C294.363 2.79999 294.442 2.76998 294.512 2.72998C294.552 2.69998 294.602 2.66 294.642 2.63C294.722 2.55 294.773 2.45998 294.803 2.34998C294.803 2.32998 294.813 2.30998 294.823 2.28998C294.833 2.22998 294.842 2.15998 294.852 2.09998V2.08002C294.852 2.08002 294.852 2.08001 294.852 2.07001V2.04999C294.872 2.01999 294.883 2.00003 294.903 1.97003C295.023 1.78003 295.013 1.52002 294.903 1.33002C294.793 1.13002 294.582 1.02002 294.362 1.02002C294.242 1.02002 294.132 1.03999 294.012 1.04999C293.992 1.04999 293.982 1.03002 293.962 1.02002C293.902 1.02002 293.853 1.01 293.793 1C293.683 1 293.572 1.03003 293.472 1.09003C293.432 1.12003 293.382 1.16 293.342 1.19C293.262 1.27 293.213 1.36003 293.183 1.47003C293.183 1.47003 293.183 1.47999 293.183 1.48999C293.183 1.48999 293.183 1.51002 293.173 1.52002C293.173 1.52002 293.173 1.52003 293.173 1.53003C293.173 1.53003 293.173 1.53999 293.173 1.54999C293.133 1.62999 293.083 1.70999 293.063 1.79999C293.033 1.94999 293.033 2.02999 293.063 2.17999C293.083 2.24999 293.112 2.32 293.142 2.38L293.122 2.39001Z" fill="white"/>
<path d="M113.55 200.86C112.29 200.55 110.84 200.29 109.43 200.21C109.17 198.1 108.82 195.98 108.31 193.86C106.66 186.96 106.8 179.64 106.07 172.52C105.41 166.1 104.66 159.69 103.95 153.28C100.62 159.15 99.26 165.04 97.71 170.88C95.02 180.95 92.06 190.95 89.55 201.06C89.12 202.79 88.82 204.85 88.93 206.7C81.84 208.26 74.56 209 67.36 210.13C60.4 211.22 53.47 212.48 46.52 213.66C46.5 214.53 46.48 215.39 46.46 216.26C48.2 216.65 49.92 217.23 51.67 217.38C58.81 217.99 65.96 218.72 73.13 218.96C80.13 219.2 87.12 220.08 94.11 220.68C96.63 229.32 97.42 238.35 98.82 247.25C99.91 254.21 101.17 261.14 102.35 268.09C103.22 268.11 104.08 268.13 104.95 268.15C105.34 266.41 105.92 264.69 106.07 262.94C106.68 255.8 107.41 248.65 107.65 241.48C107.88 234.7 108.71 227.93 109.32 221.16C113.12 220.98 116.93 220.53 120.76 219.62C127.66 217.97 134.98 218.11 142.1 217.38C148.52 216.72 154.93 215.97 161.34 215.26C155.47 211.93 149.58 210.57 143.74 209.02C133.67 206.33 123.67 203.37 113.56 200.86H113.55Z" fill="white"/>
<path d="M76.3398 200.581C76.3398 200.581 76.3599 200.68 76.3799 200.72C76.4899 200.86 76.5898 201.001 76.6998 201.131C76.9498 201.381 77.2598 201.56 77.5998 201.66C77.7798 201.68 77.9598 201.711 78.1398 201.731C78.1698 201.731 78.1998 201.711 78.2398 201.701C78.2998 201.701 78.3798 201.72 78.3898 201.72C78.3898 201.72 78.3998 201.72 78.4098 201.72C78.4098 201.72 78.9498 201.651 78.9598 201.651C78.9998 201.641 79.1798 201.561 79.2798 201.521C79.3398 201.501 79.4098 201.471 79.4598 201.441C79.4698 201.441 79.8699 201.131 79.8799 201.121C79.8999 201.101 80.1898 200.731 80.1998 200.701C80.3098 200.541 80.3598 200.34 80.4298 200.16C80.4298 200.15 80.4399 200.131 80.4399 200.121C80.4399 200.121 80.4399 200.1 80.4399 200.09C80.4499 200 80.4598 199.911 80.4798 199.821C80.5298 199.641 80.5298 199.46 80.4798 199.28C80.4598 199.14 80.4598 199.041 80.4098 198.921C80.3398 198.751 80.2699 198.571 80.1899 198.401C80.1899 198.391 80.1898 198.381 80.1798 198.371C80.1698 198.351 80.1598 198.331 80.1398 198.311C80.0298 198.161 79.9198 197.991 79.7898 197.861C79.7898 197.861 79.7798 197.85 79.7698 197.84C79.7298 197.81 79.3898 197.551 79.3498 197.521C79.3498 197.521 79.3398 197.521 79.3298 197.511C79.3198 197.511 79.2998 197.491 79.2898 197.491C79.1598 197.431 78.9399 197.311 78.7499 197.271C78.6499 197.241 78.5098 197.24 78.4298 197.22C78.3298 197.21 78.2098 197.181 78.0998 197.181C77.9898 197.181 77.8798 197.181 77.7698 197.171C77.4898 197.161 77.2298 197.22 76.9798 197.35C76.7298 197.43 76.5099 197.571 76.3199 197.771C76.1199 197.961 75.9798 198.171 75.8998 198.431C75.7698 198.671 75.7098 198.94 75.7198 199.22C75.7398 199.4 75.7698 199.581 75.7898 199.761C75.8798 200.091 76.0598 200.371 76.2898 200.611L76.3398 200.581Z" fill="white"/>
<path d="M114.67 193.69C114.78 193.96 114.77 193.94 114.88 194.08C114.91 194.2 114.9 194.33 114.96 194.45C115.04 194.7 115.18 194.92 115.38 195.11C115.57 195.31 115.78 195.45 116.04 195.53C116.28 195.66 116.55 195.72 116.83 195.71C117.01 195.69 117.19 195.66 117.37 195.64C117.72 195.54 118.02 195.37 118.27 195.11C118.38 194.97 118.48 194.83 118.59 194.7C118.77 194.38 118.87 194.04 118.87 193.67C118.85 193.4 118.87 193.12 118.84 192.85C118.84 192.48 118.75 192.14 118.56 191.82C118.53 191.77 118.48 191.75 118.45 191.71C118.43 191.68 118.44 191.67 118.42 191.64C118.29 191.4 118.12 191.21 117.89 191.07C117.69 190.89 117.46 190.77 117.19 190.7C116.92 190.61 116.65 190.6 116.37 190.66C116.1 190.67 115.84 190.75 115.61 190.9C115.47 191.01 115.33 191.11 115.2 191.22C115.12 191.3 115.1 191.42 115.03 191.51C114.97 191.58 114.92 191.65 114.87 191.72V191.7C114.87 191.72 114.85 191.74 114.84 191.75C114.82 191.78 114.79 191.81 114.77 191.84C114.77 191.84 114.77 191.85 114.76 191.86C114.76 191.87 114.56 192.34 114.55 192.35C114.55 192.35 114.48 192.89 114.48 192.9C114.48 192.9 114.55 193.44 114.55 193.45C114.57 193.53 114.68 193.76 114.65 193.7L114.67 193.69Z" fill="white"/>
<path d="M118.95 225.701C118.81 225.591 118.67 225.491 118.54 225.381C118.22 225.201 117.88 225.101 117.51 225.101C117.49 225.101 117.47 225.101 117.46 225.101C117.31 225.111 117.05 225.151 116.9 225.171C116.9 225.171 116.88 225.171 116.87 225.171C116.85 225.171 116.84 225.171 116.82 225.181C116.73 225.211 116.63 225.261 116.56 225.291C116.5 225.321 116.38 225.361 116.3 225.401C116.29 225.401 116.27 225.411 116.26 225.421C116.26 225.421 116.24 225.431 116.24 225.441C116.13 225.521 115.93 225.681 115.82 225.771C115.79 225.791 115.76 225.821 115.74 225.851C115.54 226.041 115.4 226.251 115.32 226.511C115.19 226.751 115.13 227.021 115.14 227.301C115.13 227.581 115.19 227.841 115.32 228.091C115.4 228.341 115.54 228.561 115.74 228.751C115.88 228.861 116.02 228.961 116.15 229.071C116.47 229.251 116.81 229.351 117.18 229.351C117.36 229.331 117.54 229.301 117.72 229.281C117.87 229.241 117.98 229.121 118.11 229.051C118.17 229.031 118.24 229.041 118.3 229.011C118.55 228.931 118.77 228.791 118.96 228.591C119.16 228.401 119.3 228.191 119.38 227.931C119.51 227.691 119.57 227.421 119.56 227.141C119.54 226.961 119.51 226.781 119.49 226.601C119.39 226.251 119.22 225.951 118.96 225.701H118.95Z" fill="white"/>
<path d="M88.4701 227.21C88.4701 227.21 88.3701 227.12 88.3101 227.07C88.1501 226.94 87.9901 226.82 87.8301 226.7C87.8101 226.68 87.7801 226.67 87.7501 226.65C87.7001 226.62 87.6501 226.6 87.6001 226.57C87.4901 226.52 87.2401 226.4 87.0601 226.34C87.0401 226.34 87.0101 226.33 86.9901 226.32C86.4201 226.22 86.3701 226.22 85.8001 226.32C85.7801 226.32 85.7701 226.32 85.7501 226.33C85.7001 226.35 85.5601 226.41 85.5001 226.43C85.4501 226.45 85.2901 226.51 85.2401 226.54C85.2401 226.54 85.2201 226.54 85.2201 226.55C85.2201 226.55 85.2201 226.55 85.2101 226.55C85.1701 226.58 84.8301 226.84 84.7901 226.87C84.7901 226.87 84.7801 226.88 84.7701 226.89C84.6401 227.03 84.5201 227.18 84.4201 227.34C84.4201 227.34 84.4201 227.36 84.4101 227.37C84.3701 227.46 84.2401 227.76 84.2001 227.86C84.2001 227.86 84.2001 227.87 84.2001 227.88C84.2001 227.9 84.1901 227.93 84.1801 227.95C84.1601 228.04 84.1501 228.18 84.1401 228.24C84.1301 228.33 84.1101 228.44 84.1001 228.54C84.1001 228.55 84.1001 228.57 84.1001 228.58C84.1001 228.62 84.1001 228.65 84.1001 228.69C84.1201 228.96 84.1601 229.24 84.2201 229.51C84.2801 229.78 84.4101 230.01 84.5901 230.21C84.7301 230.43 84.9301 230.61 85.1601 230.74C85.3901 230.89 85.6501 230.97 85.9201 230.98C86.1901 231.04 86.4601 231.03 86.7401 230.94C86.9001 230.87 87.0701 230.8 87.2301 230.73C87.2801 230.7 87.3101 230.64 87.3601 230.6C87.5201 230.57 87.6801 230.57 87.8301 230.5C88.0801 230.42 88.3001 230.28 88.4901 230.08C88.6001 229.94 88.7001 229.8 88.8101 229.67C88.9901 229.35 89.0901 229.01 89.0901 228.64C89.0701 228.46 89.0401 228.28 89.0201 228.1C88.9201 227.75 88.7501 227.45 88.4901 227.2L88.4701 227.21Z" fill="white"/>
<path d="M173.98 214.83C171.3 213.94 168.4 214.59 165.7 213.82C164.96 213.61 164.64 214.77 165.38 214.98C168.08 215.75 170.99 215.11 173.66 215.99C174.4 216.23 174.71 215.07 173.98 214.83Z" fill="white"/>
<path d="M103.61 273.36C103.61 274.68 103.48 275.99 103.49 277.31C103.49 278.57 103.56 279.97 104.2 281.09C104.58 281.76 105.62 281.16 105.24 280.48C104.67 279.49 104.69 278.19 104.69 277.09C104.69 275.84 104.81 274.6 104.81 273.35C104.81 272.58 103.61 272.58 103.61 273.35V273.36Z" fill="white"/>
<path d="M42.0299 213.621C40.0199 213.621 37.9899 213.531 35.9899 213.621C35.2999 213.651 34.6099 213.751 33.9299 213.801C33.4099 213.831 32.6899 213.941 32.1999 213.701C31.5099 213.361 30.8999 214.391 31.5899 214.741C32.8299 215.361 34.4599 214.941 35.7699 214.841C36.6999 214.771 37.6399 214.821 38.5699 214.821C39.7299 214.821 40.8799 214.821 42.0399 214.821C42.8099 214.821 42.8099 213.621 42.0399 213.621H42.0299Z" fill="white"/>
<path d="M102.77 142.92C102.77 145.23 102.94 147.54 102.94 149.85C102.94 150.62 104.14 150.62 104.14 149.85C104.14 147.54 103.97 145.23 103.97 142.92C103.97 142.15 102.77 142.15 102.77 142.92Z" fill="white"/>
<path d="M73.1099 193.41C73.2499 193.7 73.6599 193.78 73.9299 193.63C74.2299 193.46 74.2899 193.1 74.1499 192.81C73.5999 191.71 72.7599 190.81 71.8799 189.96C71.0599 189.16 70.1899 188.39 69.5899 187.4C69.1899 186.74 68.1499 187.35 68.5499 188.01C69.7999 190.04 72.0399 191.26 73.1099 193.42V193.41Z" fill="white"/>
<path d="M120.64 188.22C120.94 188.39 121.28 188.27 121.46 188C121.58 187.83 121.7 187.66 121.83 187.49C121.95 187.32 122.04 187.22 122.21 187.01C122.52 186.63 122.85 186.27 123.2 185.93C123.37 185.76 123.55 185.6 123.73 185.45C123.9 185.31 124.02 185.22 124.24 185.07C124.42 184.95 124.61 184.84 124.81 184.74C124.81 184.74 124.89 184.7 124.9 184.7C124.94 184.68 124.98 184.67 125.02 184.65C125.12 184.61 125.23 184.58 125.33 184.56C125.65 184.48 125.83 184.13 125.75 183.82C125.66 183.5 125.33 183.32 125.01 183.4C124 183.64 123.13 184.33 122.39 185.03C121.65 185.74 121.01 186.55 120.42 187.39C120.23 187.66 120.37 188.06 120.64 188.21V188.22Z" fill="white"/>
<path d="M127.16 231.62C125.48 230.57 123.93 229.31 122.26 228.24C121.99 228.07 121.6 228.18 121.44 228.46C121.27 228.75 121.38 229.11 121.66 229.28C123.33 230.35 124.88 231.61 126.56 232.66C127.22 233.07 127.82 232.03 127.17 231.62H127.16Z" fill="white"/>
<path d="M84.2399 232.801C83.9499 232.631 83.5999 232.741 83.4199 233.021C82.3199 234.681 81.6299 236.581 80.5499 238.261C80.1299 238.911 81.1699 239.521 81.5899 238.871C82.6699 237.191 83.3599 235.301 84.4599 233.631C84.6399 233.361 84.5099 232.971 84.2399 232.811V232.801Z" fill="white"/>
<path d="M28.43 213.88C28.41 213.82 28.39 213.76 28.35 213.7C28.35 213.7 28.35 213.69 28.34 213.68C28.31 213.63 28.27 213.59 28.24 213.54C28.24 213.52 28.24 213.5 28.23 213.49C28.21 213.42 28.16 213.35 28.11 213.3C28.06 213.24 27.99 213.2 27.92 213.18C27.85 213.14 27.77 213.13 27.69 213.13C27.64 213.13 27.58 213.14 27.53 213.15C27.43 213.18 27.34 213.23 27.26 213.3C27.23 213.34 27.2 213.38 27.17 213.42C27.16 213.44 27.16 213.47 27.15 213.5C27.14 213.53 27.12 213.56 27.1 213.58C27.07 213.63 27.05 213.68 27.02 213.74C27.01 213.77 26.99 213.8 26.98 213.83C26.98 213.86 26.96 213.96 26.96 213.99C26.96 213.99 26.96 214 26.96 214.01C26.96 214.01 26.98 214.16 26.98 214.17C26.98 214.17 26.98 214.17 26.98 214.18C26.98 214.21 27.03 214.3 27.04 214.33C27.04 214.33 27.04 214.34 27.05 214.35C27.07 214.38 27.12 214.45 27.16 214.49C27.16 214.49 27.16 214.49 27.17 214.49C27.21 214.52 27.26 214.56 27.3 214.59C27.33 214.61 27.36 214.62 27.39 214.64C27.48 214.68 27.57 214.72 27.66 214.75C27.74 214.77 27.82 214.78 27.9 214.76C27.98 214.76 28.05 214.73 28.12 214.69C28.16 214.66 28.2 214.63 28.24 214.6C28.31 214.52 28.37 214.44 28.39 214.34C28.43 214.25 28.44 214.14 28.45 214.04C28.45 214.04 28.45 214.02 28.45 214.01C28.45 213.96 28.44 213.89 28.43 213.84V213.88Z" fill="white"/>
<path d="M102.38 137.57C102.38 137.57 102.38 137.57 102.38 137.58C102.38 137.61 102.42 137.68 102.44 137.72C102.44 137.76 102.44 137.8 102.44 137.83C102.46 137.91 102.49 137.98 102.55 138.03C102.59 138.1 102.65 138.15 102.72 138.18C102.86 138.25 103.03 138.29 103.18 138.24C103.23 138.22 103.28 138.2 103.32 138.18C103.32 138.18 103.33 138.16 103.34 138.16C103.37 138.16 103.39 138.16 103.42 138.15C103.57 138.1 103.68 138.04 103.8 137.93C103.9 137.84 103.98 137.7 104.02 137.57C104.04 137.5 104.05 137.42 104.05 137.35C104.05 137.34 104.05 137.32 104.05 137.31C104.05 137.25 104.04 137.18 104.02 137.12C103.97 136.92 103.8 136.76 103.6 136.7C103.58 136.7 103.56 136.7 103.54 136.69C103.51 136.65 103.48 136.6 103.45 136.57C103.4 136.51 103.33 136.47 103.26 136.45C103.19 136.41 103.11 136.4 103.03 136.4C102.95 136.4 102.87 136.41 102.8 136.45C102.73 136.47 102.66 136.52 102.61 136.57C102.5 136.68 102.43 136.83 102.43 136.99C102.43 137.01 102.43 137.04 102.43 137.06C102.39 137.16 102.36 137.24 102.35 137.37C102.35 137.43 102.36 137.5 102.37 137.56L102.38 137.57Z" fill="white"/>
<path d="M179.47 214.891C179.51 214.751 179.49 214.551 179.41 214.431C179.33 214.311 179.21 214.201 179.07 214.161C179.07 214.141 179.07 214.131 179.05 214.111C179.02 214.071 178.99 214.031 178.96 213.991C178.91 213.931 178.84 213.891 178.77 213.871C178.65 213.821 178.51 213.801 178.38 213.841C178.29 213.871 178.21 213.921 178.14 213.981C177.99 213.951 177.88 213.951 177.73 213.981C177.58 214.021 177.45 214.131 177.37 214.261C177.29 214.391 177.26 214.581 177.31 214.721C177.36 214.871 177.45 215.011 177.59 215.081C177.62 215.091 177.64 215.101 177.67 215.111C177.67 215.171 177.68 215.231 177.71 215.281C177.79 215.461 177.92 215.561 178.1 215.631C178.23 215.671 178.37 215.711 178.51 215.701C178.59 215.701 178.67 215.691 178.75 215.671C178.81 215.651 178.87 215.631 178.92 215.601C178.93 215.601 178.94 215.591 178.95 215.581C179.08 215.491 179.16 215.401 179.25 215.271C179.26 215.251 179.28 215.231 179.29 215.211C179.3 215.201 179.31 215.191 179.32 215.181C179.32 215.181 179.31 215.191 179.3 215.201C179.3 215.201 179.3 215.191 179.31 215.181C179.39 215.101 179.46 215.021 179.5 214.901L179.47 214.891Z" fill="white"/>
<path d="M105.71 285.19C105.78 285.09 105.83 284.98 105.83 284.85C105.83 284.77 105.82 284.69 105.78 284.62C105.76 284.55 105.71 284.48 105.66 284.43C105.55 284.33 105.4 284.25 105.24 284.25C105.08 284.25 104.92 284.31 104.82 284.43C104.73 284.53 104.62 284.62 104.53 284.73C104.46 284.82 104.39 284.9 104.34 285C104.28 285.11 104.24 285.23 104.21 285.36C104.21 285.41 104.2 285.471 104.19 285.521C104.19 285.601 104.2 285.68 104.24 285.75C104.25 285.8 104.28 285.84 104.32 285.88C104.36 285.95 104.42 286 104.49 286.03C104.51 286.04 104.53 286.05 104.55 286.07C104.64 286.21 104.78 286.32 104.94 286.37C105.09 286.41 105.24 286.39 105.38 286.34C105.45 286.31 105.51 286.29 105.58 286.28C105.66 286.26 105.73 286.23 105.78 286.17C105.85 286.13 105.9 286.07 105.93 286C105.97 285.93 106 285.86 106 285.78C106.02 285.7 106.01 285.62 105.99 285.54C105.94 285.4 105.86 285.27 105.72 285.19H105.71Z" fill="white"/>
</svg>
