<svg width="27" height="25" viewBox="0 0 27 25" fill="none" xmlns="http://www.w3.org/2000/svg">
<path d="M16.06 0.600033C16.2283 0.517786 16.4164 0.484489 16.6028 0.503938C16.7891 0.523386 16.9663 0.594798 17.114 0.710033L26.114 7.71003C26.23 7.80015 26.3248 7.91472 26.3915 8.04561C26.4582 8.17649 26.4953 8.32046 26.5 8.4673C26.5048 8.61413 26.4772 8.76021 26.4191 8.89515C26.361 9.03009 26.2739 9.15057 26.164 9.24803L17.164 17.248C17.0199 17.376 16.8418 17.4596 16.6513 17.4888C16.4607 17.518 16.2658 17.4914 16.09 17.4124C15.9142 17.3334 15.765 17.2052 15.6603 17.0433C15.5556 16.8815 15.4999 16.6928 15.5 16.5V12.612C15.028 12.692 14.412 12.832 13.692 13.072C11.946 13.656 9.584 14.83 7.208 17.208C7.06262 17.354 6.87572 17.4514 6.67285 17.4871C6.46998 17.5228 6.26103 17.495 6.07457 17.4075C5.88811 17.3199 5.73323 17.1769 5.6311 16.9981C5.52898 16.8192 5.48459 16.6131 5.504 16.408C5.79 13.266 6.706 10.974 7.952 9.32203C9.02144 7.89615 10.4748 6.80425 12.142 6.17403C13.2173 5.76647 14.3511 5.53418 15.5 5.48603V1.50003C15.4996 1.31261 15.5519 1.12886 15.6509 0.96973C15.75 0.8106 15.8917 0.682498 16.06 0.600033ZM0.5 7.50003C0.5 6.17395 1.02678 4.90218 1.96447 3.9645C2.90215 3.02682 4.17392 2.50003 5.5 2.50003H9.5C9.76522 2.50003 10.0196 2.60539 10.2071 2.79293C10.3946 2.98046 10.5 3.23482 10.5 3.50003C10.5 3.76525 10.3946 4.0196 10.2071 4.20714C10.0196 4.39468 9.76522 4.50003 9.5 4.50003H5.5C4.70435 4.50003 3.94129 4.8161 3.37868 5.37871C2.81607 5.94132 2.5 6.70438 2.5 7.50003V19.5C2.5 20.2957 2.81607 21.0587 3.37868 21.6214C3.94129 22.184 4.70435 22.5 5.5 22.5H17.5C18.2956 22.5 19.0587 22.184 19.6213 21.6214C20.1839 21.0587 20.5 20.2957 20.5 19.5V17.5C20.5 17.2348 20.6054 16.9805 20.7929 16.7929C20.9804 16.6054 21.2348 16.5 21.5 16.5C21.7652 16.5 22.0196 16.6054 22.2071 16.7929C22.3946 16.9805 22.5 17.2348 22.5 17.5V19.5C22.5 20.8261 21.9732 22.0979 21.0355 23.0356C20.0979 23.9732 18.8261 24.5 17.5 24.5H5.5C4.17392 24.5 2.90215 23.9732 1.96447 23.0356C1.02678 22.0979 0.5 20.8261 0.5 19.5V7.50003Z" fill="#FBE362"/>
</svg>
